<?xml version="1.0" encoding="UTF-8"?>
<svg width="736px" height="208px" viewBox="0 0 736 208" version="1.1" xmlns="http://www.w3.org/2000/svg" xmlns:xlink="http://www.w3.org/1999/xlink">
    <title>logo</title>
    <g id="Page-1" stroke="none" stroke-width="1" fill="none" fill-rule="evenodd">
        <g id="logo_cambios_variacion2-" transform="translate(-100.000000, -114.000000)" fill="#7B7B7B">
            <g id="logo" transform="translate(100.000000, 114.000000)">
                <path d="M228.447864,133.175591 L228.447864,125.798815 L220.534595,125.798815 L220.534595,80.8675432 L228.447864,80.8675432 L228.447864,73.6248904 L212.286018,73.6248904 L212.286018,133.175591 L228.447864,133.175591 Z M256.144305,127.072986 C264.392882,127.072986 270.227241,123.92109 274.854491,118.623224 L274.854491,98.840052 L254.736011,98.840052 L254.736011,106.753321 L266.740038,106.753321 L266.740038,115.068959 C263.05165,118.01967 259.832693,118.824409 256.144305,118.824409 C244.475586,118.824409 239.982459,110.844078 239.982459,103.131994 C239.982459,93.475124 246.085065,85.8301016 256.144305,85.8301016 C260.235062,85.8301016 264.929374,87.5066416 268.08127,90.5244136 L273.580321,84.8912392 C268.751886,80.1298656 262.448095,77.715648 256.144305,77.715648 C239.58009,77.715648 231.331513,89.9208592 231.331513,103.131994 C231.331513,115.471329 238.507104,127.072986 256.144305,127.072986 Z M295.375341,126.536493 C300.002591,126.536493 303.154486,124.927014 306.574628,121.573934 L307.111121,126.067062 L314.420835,126.067062 L314.420835,92.9386312 L306.306382,92.9386312 L306.306382,109.838154 C306.306382,114.867774 302.88624,119.092655 297.85662,119.092655 C292.625815,119.092655 289.87629,115.270144 289.87629,110.240524 L289.87629,92.9386312 L281.694774,92.9386312 L281.694774,110.307586 C281.694774,120.56801 287.462072,126.536493 295.375341,126.536493 Z M336.886471,127.005924 C340.574859,126.938862 345.738602,125.061138 347.616327,121.171565 L348.018697,126 L355.730781,126 L355.730781,92.9386312 L347.884574,92.9386312 L347.616327,97.49882 C345.738602,94.2128016 341.513722,92.133892 337.087656,92.133892 C327.430786,92.0668304 319.852825,98.0353128 319.852825,109.435785 C319.852825,121.037442 327.095478,127.072986 336.886471,127.005924 Z M337.825334,119.495025 C332.393344,119.495025 328.03434,115.739575 328.03434,109.435785 C328.03434,103.131994 332.393344,99.4436064 337.825334,99.4436064 C350.701161,99.4436064 350.701161,119.495025 337.825334,119.495025 Z M370.819641,126 L370.819641,108.563984 C370.819641,102.461378 374.776275,100.181284 379.068218,100.181284 C381.750682,100.181284 383.293098,100.918962 384.969638,102.327255 L388.658026,95.2187256 C386.847363,93.4080624 383.561345,92.0668304 380.141203,92.0668304 C376.788123,92.0668304 373.367982,92.6703848 370.819641,96.7611424 L370.216086,92.9386312 L362.638126,92.9386312 L362.638126,126 L370.819641,126 Z M406.965843,127.005924 C410.654231,126.938862 415.817974,125.061138 417.695699,121.171565 L418.098069,126 L425.810153,126 L425.810153,92.9386312 L417.963946,92.9386312 L417.695699,97.49882 C415.817974,94.2128016 411.593094,92.133892 407.167028,92.133892 C397.510158,92.0668304 389.932197,98.0353128 389.932197,109.435785 C389.932197,121.037442 397.17485,127.072986 406.965843,127.005924 Z M407.904706,119.495025 C402.472716,119.495025 398.113712,115.739575 398.113712,109.435785 C398.113712,103.131994 402.472716,99.4436064 407.904706,99.4436064 C420.780533,99.4436064 420.780533,119.495025 407.904706,119.495025 Z M440.899013,139.81469 L440.899013,122.110427 C443.246169,125.731754 448.409912,126.804739 451.897115,126.804739 C462.492848,126.804739 468.595454,119.159717 468.595454,109.502846 C468.595454,99.7789144 461.822232,92.2009536 451.628869,92.2009536 C447.873419,92.2009536 443.447354,93.810432 440.899013,97.49882 L440.36252,92.9386312 L432.717498,92.9386312 L432.717498,139.81469 L440.899013,139.81469 Z M451.025314,118.89147 C445.459202,118.89147 441.63669,114.66659 441.63669,109.502846 C441.63669,104.339103 445.123894,100.114222 451.025314,100.114222 C456.926735,100.114222 460.413938,104.339103 460.413938,109.502846 C460.413938,114.66659 456.591427,118.89147 451.025314,118.89147 Z M490.25635,126.737678 C500.986206,126.737678 507.491182,119.025594 507.491182,109.502846 C507.491182,100.047161 500.71796,92.2680152 490.189289,92.2680152 C479.660618,92.2680152 473.088581,100.047161 473.088581,109.502846 C473.088581,119.025594 479.526494,126.737678 490.25635,126.737678 Z M490.25635,119.226778 C484.287868,119.226778 481.270096,114.532466 481.270096,109.502846 C481.270096,104.540288 484.35493,99.7118528 490.25635,99.7118528 C495.755402,99.7118528 499.242605,104.540288 499.242605,109.502846 C499.242605,114.532466 496.224833,119.226778 490.25635,119.226778 Z" id="[Guarapo" fill-rule="nonzero"></path>
                <path d="M535.254715,125.067334 L535.254715,90.7945312 L550.270108,111.331279 L552.020782,111.331279 L567.372842,90.8618648 L567.372842,125.067334 L576.260878,125.067334 L576.260878,77.9338136 L566.093504,77.9338136 L551.347446,98.2012272 L536.601387,77.9338136 L526.36668,77.9338136 L526.36668,125.067334 L535.254715,125.067334 Z M600.770308,125.875337 C605.820328,125.875337 611.543684,124.124663 615.045031,120.488649 L609.79301,115.303962 C607.90767,117.256636 603.934987,118.401307 600.904975,118.401307 C595.114286,118.401307 591.545605,115.438629 591.006936,111.331279 L616.930372,111.331279 C618.20971,97.6625584 611.27435,90.7945312 600.164306,90.7945312 C589.39093,90.7945312 582.522902,98.06656 582.522902,108.1666 C582.522902,118.805309 589.323596,125.875337 600.770308,125.875337 Z M609.052341,104.530586 L591.141603,104.530586 C592.353608,100.221235 595.989622,98.06656 600.43364,98.06656 C605.146992,98.06656 608.513672,100.221235 609.052341,104.530586 Z M638.813792,125.74067 C642.853808,125.74067 646.961158,124.393998 649.519834,120.421315 L650.058503,125 L657.734534,125 L657.734534,77.9338136 L649.519834,77.9338136 L649.519834,96.3158864 C647.56716,92.8818728 642.113138,90.996532 638.611791,90.996532 C628.915753,90.996532 621.711058,96.9218888 621.711058,108.368601 C621.711058,119.276644 629.05042,125.74067 638.813792,125.74067 Z M639.352461,118.131973 C634.10044,118.131973 629.925757,114.15929 629.925757,108.368601 C629.925757,102.37591 634.10044,98.6725624 639.352461,98.6725624 C644.537148,98.6725624 648.981166,102.577911 648.981166,108.368601 C648.981166,114.361291 644.537148,118.131973 639.352461,118.131973 Z M664.131226,82.4451648 C664.131226,88.8418568 673.827264,88.8418568 673.827264,82.4451648 C673.827264,76.0484728 664.131226,76.0484728 664.131226,82.4451648 Z M673.086594,125 L673.086594,91.669868 L664.871895,91.669868 L664.871895,125 L673.086594,125 Z M695.778018,126.010004 C699.481366,125.94267 704.666053,124.05733 706.551394,120.151981 L706.955395,125 L714.698759,125 L714.698759,91.8045352 L706.820728,91.8045352 L706.551394,96.38322 C704.666053,93.0838736 700.424036,90.996532 695.980018,90.996532 C686.28398,90.9291984 678.675283,96.9218888 678.675283,108.368601 C678.675283,120.017314 685.947312,126.077338 695.778018,126.010004 Z M735.76517,73.41527 L735.76517,133.20431 L719.53864,133.20431 L719.53864,125.79801 L727.48358,125.79801 L727.48358,80.68691 L719.53864,80.68691 L719.53864,73.41527 L735.76517,73.41527 Z M696.720688,98.3358944 C709.648739,98.3358944 709.648739,118.468641 696.720688,118.468641 C691.266666,118.468641 686.889982,114.697959 686.889982,108.368601 C686.889982,102.039242 691.266666,98.3358944 696.720688,98.3358944 Z" id="Media" fill-rule="nonzero"></path>
                <path d="M80.092,3.61425 C88.449,-1.20475 98.678,-1.20475 107.035,3.61425 L107.035,3.61425 L173.265,41.79925 C181.832,46.73725 187.127,55.98325 187.127,66.00325 L187.127,66.00325 L187.127,141.46425 C187.127,151.48325 181.832,160.72925 173.265,165.66725 L173.265,165.66725 L107.035,203.85325 C98.678,208.67125 88.449,208.67125 80.092,203.85325 L80.092,203.85325 L13.86,165.66725 C5.295,160.72925 0,151.48325 0,141.46425 L0,141.46425 L0,66.00325 C0,55.98325 5.295,46.73725 13.86,41.79925 L13.86,41.79925 Z M94.004,30.95325 C52.672,30.95325 20.769,64.19125 20.769,103.73325 C20.769,143.47725 52.125,176.43625 93.868,176.43625 C134.215,176.43625 166.267,143.41225 166.3571,103.93525 C166.365,100.50525 165.891,96.47025 165.273,91.62925 L165.273,91.62925 L93.664,91.62925 L93.664,119.87325 L131.811,119.87325 C126.672,134.80125 113.512,144.08125 95.416,144.08125 C72.385,144.08125 54.905,126.73225 54.905,103.73325 C54.905,80.93725 71.972,63.58625 94.387,63.58625 C107.752,63.58625 120.912,67.62125 128.933,82.95325 L128.933,82.95325 L160.364,74.92725 C148.003,48.72725 124.644,30.95325 94.004,30.95325 Z" id="Fill-1"></path>
            </g>
        </g>
    </g>
</svg>