<?xml version="1.0" encoding="UTF-8"?>
<svg width="128px" height="46px" viewBox="0 0 128 46" version="1.1" xmlns="http://www.w3.org/2000/svg" xmlns:xlink="http://www.w3.org/1999/xlink">
    <title>logo</title>
    <g id="product" stroke="none" stroke-width="1" fill="none" fill-rule="evenodd">
        <g id="Desktop" transform="translate(-42.000000, -23.000000)">
            <g id="logo" transform="translate(42.000000, 24.000000)">
                <path d="M17.6240647,32.7209302 C18.0949815,32.7209302 18.5188067,32.6686047 18.8955403,32.5639535 C19.2722738,32.4593023 19.5548239,32.3372093 19.7431907,32.1976744 C19.9315574,31.755814 20.1670159,31.1162791 20.449566,30.2790698 C20.7321161,29.4418605 21.0205527,28.5232558 21.3148758,27.5232558 C21.6091988,26.5232558 21.9035219,25.4825581 22.197845,24.4011628 C22.492168,23.3197674 22.7629452,22.2965116 23.0101766,21.3313953 C23.257408,20.3662791 23.4516612,19.5232558 23.5929362,18.8023256 C23.7342113,18.0813953 23.8048488,17.5697674 23.8048488,17.2674419 C23.8048488,16.755814 23.6459144,16.3837209 23.3280455,16.1511628 C23.0101766,15.9186047 22.5922379,15.8023256 22.0742293,15.8023256 C21.7916791,15.8023256 21.509129,15.8430233 21.2265789,15.9244186 C20.9440287,16.005814 20.6850244,16.1046512 20.449566,16.2209302 C20.0963783,18.4534884 19.6607802,20.6860465 19.1427716,22.9186047 C18.624763,25.1511628 18.1303003,27.2674419 17.6593834,29.2674419 L17.6593834,29.2674419 L17.4827896,29.2674419 C17.3650604,28.8488372 17.194353,28.2674419 16.9706675,27.5232558 C16.7469819,26.7790698 16.4879777,25.9186047 16.1936546,24.9418605 C15.8993315,23.9651163 15.5755762,22.9127907 15.2223885,21.7848837 C14.8692008,20.6569767 14.5042402,19.5116279 14.1275067,18.3488372 C14.0097775,18 13.7684326,17.7325581 13.403472,17.5465116 C13.0385114,17.3604651 12.5852539,17.2674419 12.0436995,17.2674419 C11.2902325,17.2674419 10.6427217,17.4302326 10.1011673,17.755814 C9.70088796,18.9418605 9.31238152,20.1337209 8.93564801,21.3313953 C8.5589145,22.5290698 8.21161329,23.6453488 7.89374439,24.6802326 C7.57587549,25.7151163 7.29332535,26.6337209 7.04609398,27.4360465 C6.79886262,28.2383721 6.61638232,28.8488372 6.4986531,29.2674419 L6.4986531,29.2674419 L6.35737803,29.2674419 C6.26319465,28.8488372 6.11603312,28.2267442 5.91589345,27.4011628 C5.71575377,26.5755814 5.4979547,25.6337209 5.26249626,24.5755814 C5.02703781,23.5174419 4.78569291,22.3837209 4.53846154,21.1744186 C4.29123017,19.9651163 4.06165819,18.7674419 3.84974559,17.5813953 C3.63783298,16.3953488 3.00209518,15.8023256 1.94253218,15.8023256 C1.51870697,15.8023256 1.136087,15.8895349 0.794672254,16.0639535 C0.453257508,16.2383721 0.188366756,16.4302326 0,16.6395349 C0.211912601,17.755814 0.494462736,19.0581395 0.847650404,20.5465116 C1.20083807,22.0348837 1.56579866,23.5116279 1.94253218,24.9767442 C2.31926569,26.4418605 2.6959992,27.7906977 3.07273271,29.0232558 C3.44946623,30.255814 3.77910805,31.1511628 4.06165819,31.7093023 C4.20293325,32.0581395 4.48548339,32.3139535 4.90930859,32.4767442 C5.33313379,32.6395349 5.81582361,32.7209302 6.35737803,32.7209302 C6.85184077,32.7209302 7.26389305,32.6744186 7.59353487,32.5813953 C7.92317669,32.4883721 8.20572683,32.3604651 8.44118527,32.1976744 C8.67664372,31.5697674 8.94153447,30.8372093 9.23585753,30 C9.53018058,29.1627907 9.83627656,28.255814 10.1541455,27.2790698 C10.4720144,26.3023256 10.7898833,25.2965116 11.1077522,24.2616279 C11.4256211,23.2267442 11.7258306,22.1976744 12.0083807,21.1744186 C12.2909309,22.1744186 12.5852539,23.1860465 12.8913499,24.2093023 C13.1974459,25.2325581 13.5035419,26.2151163 13.8096378,27.1569767 C14.1157338,28.0988372 14.4100569,28.9767442 14.692607,29.7906977 C14.9751571,30.6046512 15.2223885,31.2906977 15.4343011,31.8488372 C15.6462137,32.4302326 16.3761349,32.7209302 17.6240647,32.7209302 Z M33.5175097,33 C34.7889853,33 35.907413,32.872093 36.8727926,32.6162791 C37.8381722,32.3604651 38.626958,32.0581395 39.23915,31.7093023 C39.6629752,31.4534884 39.9985034,31.1802326 40.2457348,30.8895349 C40.4929662,30.5988372 40.6165819,30.1860465 40.6165819,29.6511628 L40.6165819,29.6511628 L40.6165819,21.5232558 C40.6165819,19.5 39.9690711,18.0174419 38.6740497,17.0755814 C37.3790282,16.1337209 35.6366357,15.6627907 33.4468722,15.6627907 C32.5050384,15.6627907 31.6102963,15.7383721 30.7626459,15.8895349 C29.9149955,16.0406977 29.1615285,16.2790698 28.5022448,16.6046512 C28.0784196,16.7906977 27.7664372,17.0116279 27.5662975,17.2674419 C27.3661578,17.5232558 27.266088,17.8488372 27.266088,18.244186 C27.266088,18.5697674 27.3484985,18.8662791 27.5133194,19.1337209 C27.6781403,19.4011628 27.87828,19.627907 28.1137384,19.8139535 C28.7965679,19.4883721 29.5735808,19.1976744 30.444777,18.9418605 C31.3159733,18.6860465 32.2224883,18.5581395 33.1643221,18.5581395 C34.3651601,18.5581395 35.3011075,18.7906977 35.972164,19.255814 C36.6432206,19.7209302 36.9787489,20.4651163 36.9787489,21.4883721 L36.9787489,21.4883721 L36.9787489,22.255814 L32.0694403,22.744186 C30.1857727,22.9302326 28.7435897,23.4302326 27.7428913,24.244186 C26.742193,25.0581395 26.2418438,26.2325581 26.2418438,27.7674419 C26.2418438,29.4883721 26.883468,30.7906977 28.1667166,31.6744186 C29.4499651,32.5581395 31.2335628,33 33.5175097,33 Z M33.5175097,30.1395349 C32.26958,30.1395349 31.351292,29.9244186 30.7626459,29.494186 C30.1739998,29.0639535 29.8796767,28.4651163 29.8796767,27.6976744 C29.8796767,26.9534884 30.150454,26.4011628 30.6920084,26.0406977 C31.2335628,25.6802326 32.0458944,25.4418605 33.1290033,25.3255814 L33.1290033,25.3255814 L36.9787489,24.9418605 L36.9787489,29.372093 C36.7197446,29.5581395 36.2841465,29.7325581 35.6719545,29.8953488 C35.0597625,30.0581395 34.3416143,30.1395349 33.5175097,30.1395349 Z M58.5231966,32.6860465 C58.8763843,32.6860465 59.2060261,32.6569767 59.5121221,32.5988372 C59.8182181,32.5406977 60.0536765,32.4767442 60.2184975,32.4069767 L60.2184975,32.4069767 L60.2184975,21.7674419 C60.2184975,19.7209302 59.5709867,18.1918605 58.2759653,17.1802326 C56.9809438,16.1686047 55.1914596,15.6627907 52.9075127,15.6627907 C51.5653996,15.6627907 50.3645615,15.8255814 49.3049985,16.1511628 C48.2454355,16.4767442 47.3860122,16.8372093 46.7267285,17.2325581 C46.2322658,17.5581395 45.8790781,17.8837209 45.6671655,18.2093023 C45.4552529,18.5348837 45.3492966,18.9651163 45.3492966,19.5 L45.3492966,19.5 L45.3492966,31.0116279 C45.3492966,31.6162791 45.5141175,32.0465116 45.8437594,32.3023256 C46.1734012,32.5581395 46.6796368,32.6860465 47.3624663,32.6860465 C47.715654,32.6860465 48.0394094,32.6569767 48.3337324,32.5988372 C48.6280555,32.5406977 48.8576275,32.4767442 49.0224484,32.4069767 L49.0224484,32.4069767 L49.0224484,19.6046512 C49.4933653,19.3488372 50.0525791,19.1162791 50.7000898,18.9069767 C51.3476005,18.6976744 52.0834082,18.5930233 52.9075127,18.5930233 C54.0141674,18.5930233 54.8912501,18.8604651 55.5387609,19.3953488 C56.1862716,19.9302326 56.5100269,20.7674419 56.5100269,21.9069767 L56.5100269,21.9069767 L56.5100269,31.0116279 C56.5100269,31.6162791 56.6748478,32.0465116 57.0044897,32.3023256 C57.3341315,32.5581395 57.8403672,32.6860465 58.5231966,32.6860465 Z M70.5315774,32.9651163 C72.7684326,32.9651163 74.4755063,32.5232558 75.6527986,31.6395349 C76.8300908,30.755814 77.4187369,29.5348837 77.4187369,27.9767442 C77.4187369,26.627907 76.9949117,25.5581395 76.1472613,24.7674419 C75.2996109,23.9767442 73.9810436,23.3488372 72.1915594,22.8837209 L72.1915594,22.8837209 L70.1430709,22.3604651 C69.3660581,22.1744186 68.8186172,21.9302326 68.5007483,21.627907 C68.1828794,21.3255814 68.0239449,20.9418605 68.0239449,20.4767442 C68.0239449,19.872093 68.3064951,19.4011628 68.8715953,19.0639535 C69.4366956,18.7267442 70.2137085,18.5581395 71.2026339,18.5581395 C72.1680136,18.5581395 73.0686421,18.7093023 73.9045196,19.0116279 C74.7403971,19.3139535 75.3702484,19.5930233 75.7940736,19.8488372 C76.0530779,19.6860465 76.2649905,19.4709302 76.4298114,19.2034884 C76.5946323,18.9360465 76.6770428,18.6162791 76.6770428,18.244186 C76.6770428,17.872093 76.5357677,17.5232558 76.2532176,17.1976744 C75.9706675,16.872093 75.5762746,16.5988372 75.0700389,16.377907 C74.5638033,16.1569767 73.9633842,15.9825581 73.2687818,15.8546512 C72.5741794,15.7267442 71.803053,15.6627907 70.9554026,15.6627907 C69.8958396,15.6627907 68.9540058,15.7848837 68.1299012,16.0290698 C67.3057967,16.2732558 66.6170807,16.6104651 66.0637534,17.0406977 C65.510426,17.4709302 65.0924873,17.9825581 64.8099371,18.5755814 C64.527387,19.1686047 64.3861119,19.8023256 64.3861119,20.4767442 C64.3861119,21.7325581 64.7628455,22.7209302 65.5163125,23.4418605 C66.2697795,24.1627907 67.4470717,24.7325581 69.0481892,25.1511628 L69.0481892,25.1511628 L71.4498653,25.7790698 C72.2033323,25.9651163 72.7743191,26.2325581 73.1628255,26.5813953 C73.5513319,26.9302326 73.7455852,27.3953488 73.7455852,27.9767442 C73.7455852,28.6511628 73.463035,29.1686047 72.8979348,29.5290698 C72.3328345,29.8895349 71.5205028,30.0697674 70.4609398,30.0697674 C69.3307393,30.0697674 68.3418138,29.8953488 67.4941634,29.5465116 C66.646513,29.1976744 65.893046,28.8139535 65.2337623,28.3953488 C64.9276664,28.5813953 64.6863215,28.8255814 64.5097276,29.127907 C64.3331338,29.4302326 64.2448369,29.755814 64.2448369,30.1046512 C64.2448369,30.5232558 64.3978849,30.9069767 64.7039808,31.255814 C65.0100768,31.6046512 65.4397885,31.9069767 65.9931158,32.1627907 C66.5464432,32.4186047 67.2116133,32.6162791 67.9886262,32.755814 C68.765639,32.8953488 69.6132894,32.9651163 70.5315774,32.9651163 Z M83.316971,13.255814 C83.9762546,13.255814 84.5060361,13.0523256 84.9063155,12.6453488 C85.3065948,12.2383721 85.5067345,11.7325581 85.5067345,11.127907 C85.5067345,10.5232558 85.3065948,10.0174419 84.9063155,9.61046512 C84.5060361,9.20348837 83.9762546,9 83.316971,9 C82.6576873,9 82.1161329,9.20348837 81.6923077,9.61046512 C81.2684825,10.0174419 81.0565699,10.5232558 81.0565699,11.127907 C81.0565699,11.7325581 81.2684825,12.2383721 81.6923077,12.6453488 C82.1161329,13.0523256 82.6576873,13.255814 83.316971,13.255814 Z M83.458246,32.6860465 C83.8349795,32.6860465 84.1705078,32.6569767 84.4648309,32.5988372 C84.7591539,32.5406977 84.9887259,32.4767442 85.1535468,32.4069767 L85.1535468,32.4069767 L85.1535468,17.6860465 C85.1535468,17.0581395 84.9946124,16.6162791 84.6767435,16.3604651 C84.3588746,16.1046512 83.8585254,15.9767442 83.1756959,15.9767442 C82.7989624,15.9767442 82.4634341,16.0116279 82.169111,16.0813953 C81.874788,16.1511628 81.6334431,16.2093023 81.4450763,16.255814 L81.4450763,16.255814 L81.4450763,31.0116279 C81.4450763,31.6162791 81.6098972,32.0465116 81.9395391,32.3023256 C82.2691809,32.5581395 82.7754165,32.6860465 83.458246,32.6860465 Z M96.031727,32.9651163 C97.3032026,32.9651163 98.2509229,32.7674419 98.8748878,32.372093 C99.4988526,31.9767442 99.8108351,31.4767442 99.8108351,30.872093 C99.8108351,30.5465116 99.746084,30.2674419 99.6165819,30.0348837 C99.4870797,29.8023256 99.3399182,29.5930233 99.1750973,29.4069767 C98.8454555,29.5697674 98.456949,29.7093023 98.009578,29.8255814 C97.5622069,29.9418605 97.1383817,30 96.7381024,30 C95.8433603,30 95.1487579,29.8255814 94.6542951,29.4767442 C94.1598324,29.127907 93.912601,28.5348837 93.912601,27.6976744 L93.912601,27.6976744 L93.912601,19.3953488 L98.4687219,19.3953488 C99.3399182,19.3953488 99.7755163,18.8953488 99.7755163,17.8953488 C99.7755163,17.6162791 99.7343111,17.3488372 99.6519006,17.0930233 C99.5694902,16.8372093 99.4811933,16.6395349 99.3870099,16.5 L99.3870099,16.5 L93.912601,16.5 L93.912601,13.0465116 C93.912601,12.4418605 93.7536666,12.0116279 93.4357977,11.755814 C93.1179288,11.5 92.6175796,11.372093 91.9347501,11.372093 C91.5815624,11.372093 91.2519206,11.4069767 90.9458246,11.4767442 C90.6397286,11.5465116 90.4042702,11.6046512 90.2394493,11.6511628 L90.2394493,11.6511628 L90.2394493,27.9418605 C90.2394493,29.7325581 90.7633443,31.0174419 91.8111344,31.7965116 C92.8589245,32.5755814 94.2657887,32.9651163 96.031727,32.9651163 Z M111.395391,32.9651163 C112.219495,32.9651163 112.990622,32.8953488 113.70877,32.755814 C114.426918,32.6162791 115.050883,32.4244186 115.580664,32.1802326 C116.110446,31.9360465 116.528385,31.6453488 116.834481,31.3081395 C117.140577,30.9709302 117.293625,30.6046512 117.293625,30.2093023 C117.293625,29.5348837 116.963983,29.0116279 116.304699,28.6395349 C115.810236,28.9883721 115.150953,29.3139535 114.326848,29.6162791 C113.502744,29.9186047 112.596229,30.0697674 111.607303,30.0697674 C110.123915,30.0697674 108.905418,29.75 107.951811,29.1104651 C106.998204,28.4709302 106.35658,27.4883721 106.026938,26.1627907 L106.026938,26.1627907 L116.340018,24.6976744 C116.881572,24.6046512 117.293625,24.4244186 117.576175,24.1569767 C117.858725,23.8895349 118,23.4651163 118,22.8837209 C118,21.8372093 117.81752,20.872093 117.452559,19.9883721 C117.087599,19.1046512 116.56959,18.3430233 115.898533,17.7034884 C115.227477,17.0639535 114.426918,16.5639535 113.496857,16.2034884 C112.566796,15.8430233 111.536666,15.6627907 110.406465,15.6627907 C109.276265,15.6627907 108.216702,15.8488372 107.227776,16.2209302 C106.238851,16.5930233 105.379427,17.1337209 104.649506,17.8430233 C103.919585,18.5523256 103.342712,19.4360465 102.918887,20.494186 C102.495061,21.5523256 102.283149,22.7790698 102.283149,24.1744186 C102.283149,25.6162791 102.500948,26.8837209 102.936546,27.9767442 C103.372144,29.0697674 103.990222,29.9883721 104.790781,30.7325581 C105.59134,31.4767442 106.550833,32.0348837 107.669261,32.4069767 C108.787688,32.7790698 110.029732,32.9651163 111.395391,32.9651163 Z M105.815025,23.4767442 C105.862117,21.872093 106.315375,20.6395349 107.174798,19.7790698 C108.034221,18.9186047 109.111444,18.4883721 110.406465,18.4883721 C111.677941,18.4883721 112.655093,18.8546512 113.337923,19.5872093 C114.020752,20.3197674 114.409259,21.2093023 114.503442,22.255814 L114.503442,22.255814 L105.815025,23.4767442 Z" id="wansite" fill="#7b7b7b" fill-rule="nonzero"></path>
                <polyline id="Rectangle" stroke="#7b7b7b" stroke-width="2" points="62 10.4472004 62 0 127 0 127 44 62 44 62 36.9338121"></polyline>
            </g>
        </g>
    </g>
</svg>