<svg width="60" height="60" viewBox="0 0 60 60" fill="none" xmlns="http://www.w3.org/2000/svg">
<path d="M39.896 28.827L27.4372 19.7704C26.98 19.439 26.373 19.3891 25.8719 19.6466C25.3667 19.9022 25.0513 20.4213 25.0513 20.9823V39.0896C25.0513 39.6566 25.3667 40.1737 25.8719 40.4293C26.0855 40.5371 26.3191 40.591 26.5547 40.591C26.8622 40.591 27.1737 40.4932 27.4372 40.2995L39.896 31.2509C40.2894 30.9614 40.519 30.5141 40.519 30.039C40.521 29.5558 40.2854 29.1105 39.896 28.827Z" fill="white"/>
<path d="M30.001 0.0039978C13.4292 0.0039978 0 13.4332 0 30.005C0 46.5708 13.4292 59.996 30.001 59.996C46.5688 59.996 60 46.5688 60 30.005C60.002 13.4332 46.5688 0.0039978 30.001 0.0039978ZM30.001 54.9905C16.2005 54.9905 5.01148 43.8075 5.01148 30.005C5.01148 16.2084 16.2005 5.01148 30.001 5.01148C43.7995 5.01148 54.9865 16.2065 54.9865 30.005C54.9885 43.8075 43.7995 54.9905 30.001 54.9905Z" fill="white"/>
</svg>
