<?xml version="1.0" encoding="UTF-8"?>
<svg width="736px" height="208px" viewBox="0 0 736 208" version="1.1" xmlns="http://www.w3.org/2000/svg" xmlns:xlink="http://www.w3.org/1999/xlink">
    <!-- Generator: Sketch 62 (91390) - https://sketch.com -->
    <title>logo</title>
    <desc>Created with Sketch.</desc>
    <g id="Page-1" stroke="none" stroke-width="1" fill="none" fill-rule="evenodd">
        <g id="logo_cambios_variacion2-" transform="translate(-100.000000, -114.000000)" fill="#6c757d">
            <g id="logo" transform="translate(100.000000, 114.000000)">
                <text id="[Guarapo" font-family="NexaBold, Nexa Bold" font-size="67.0616" font-weight="bold">
                    <tspan x="209" y="126">[Guarapo</tspan>
                </text>
                <text id="Media" font-family="NexaBold, Nexa Bold" font-size="67.3336" font-weight="bold">
                    <tspan x="523" y="125">Media</tspan>
                </text>
                <path d="M80.092,3.61425 C88.449,-1.20475 98.678,-1.20475 107.035,3.61425 L107.035,3.61425 L173.265,41.79925 C181.832,46.73725 187.127,55.98325 187.127,66.00325 L187.127,66.00325 L187.127,141.46425 C187.127,151.48325 181.832,160.72925 173.265,165.66725 L173.265,165.66725 L107.035,203.85325 C98.678,208.67125 88.449,208.67125 80.092,203.85325 L80.092,203.85325 L13.86,165.66725 C5.295,160.72925 0,151.48325 0,141.46425 L0,141.46425 L0,66.00325 C0,55.98325 5.295,46.73725 13.86,41.79925 L13.86,41.79925 Z M94.004,30.95325 C52.672,30.95325 20.769,64.19125 20.769,103.73325 C20.769,143.47725 52.125,176.43625 93.868,176.43625 C134.215,176.43625 166.267,143.41225 166.3571,103.93525 C166.365,100.50525 165.891,96.47025 165.273,91.62925 L165.273,91.62925 L93.664,91.62925 L93.664,119.87325 L131.811,119.87325 C126.672,134.80125 113.512,144.08125 95.416,144.08125 C72.385,144.08125 54.905,126.73225 54.905,103.73325 C54.905,80.93725 71.972,63.58625 94.387,63.58625 C107.752,63.58625 120.912,67.62125 128.933,82.95325 L128.933,82.95325 L160.364,74.92725 C148.003,48.72725 124.644,30.95325 94.004,30.95325 Z" id="Fill-1"></path>
                <text id="]" font-family="NexaBold, Nexa Bold" font-size="67.33" font-weight="bold">
                    <tspan x="719" y="126">]</tspan>
                </text>
            </g>
        </g>
    </g>
</svg>