<?xml version="1.0" encoding="UTF-8"?>
<svg width="326px" height="47px" viewBox="0 0 326 47" version="1.1" xmlns="http://www.w3.org/2000/svg" xmlns:xlink="http://www.w3.org/1999/xlink">
    <!-- Generator: Sketch 63.1 (92452) - https://sketch.com -->
    <title>FranciscoDíaz</title>
    <desc>Created with Sketch.</desc>
    <g id="images" stroke="none" stroke-width="1" fill="none" fill-rule="evenodd">
        <path d="M9.76,41.91 C10.04,41.91 10.3666667,41.735 10.74,41.385 C11.1133333,41.035 11.3,40.72 11.3,40.44 C11.3,40.2533333 11.2533333,40.1133333 11.16,40.02 C10.6933333,39.46 10.2616667,38.48 9.865,37.08 C9.46833333,35.68 9.11833333,34.2333333 8.815,32.74 C8.51166667,31.2466667 8.27833333,29.8816667 8.115,28.645 C7.95166667,27.4083333 7.87,26.6733333 7.87,26.44 C7.87,26.2066667 8.19666667,25.845 8.85,25.355 C9.50333333,24.865 10.32,24.3283333 11.3,23.745 C12.28,23.1616667 13.3416667,22.5316667 14.485,21.855 C15.6283333,21.1783333 16.69,20.5366667 17.67,19.93 C18.65,19.3233333 19.4666667,18.7633333 20.12,18.25 C20.7733333,17.7366667 21.1,17.34 21.1,17.06 C21.1,16.6866667 20.9716667,16.43 20.715,16.29 C20.4583333,16.15 20.1666667,16.08 19.84,16.08 C19.42,16.08 18.8366667,16.22 18.09,16.5 C17.3433333,16.78 16.5266667,17.13 15.64,17.55 C14.7533333,17.97 13.8316667,18.4366667 12.875,18.95 C11.9183333,19.4633333 11.0433333,19.9416667 10.25,20.385 C9.45666667,20.8283333 8.79166667,21.225 8.255,21.575 C7.71833333,21.925 7.40333333,22.1233333 7.31,22.17 C7.26333333,22.17 7.15833333,21.68 6.995,20.7 C6.83166667,19.72 6.63333333,18.6233333 6.4,17.41 L6.4,17.41 L5.56,12.65 C5.60666667,11.9033333 6.27166667,11.04 7.555,10.06 C8.83833333,9.08 10.2966667,8.14666667 11.93,7.26 C13.5633333,6.37333333 15.1383333,5.63833333 16.655,5.055 C18.1716667,4.47166667 19.1866667,4.18 19.7,4.18 C20.0733333,4.18 20.4,4.20333333 20.68,4.25 C20.96,4.29666667 21.2866667,4.32 21.66,4.32 C21.8933333,4.27333333 22.1033333,4.20333333 22.29,4.11 L22.29,4.11 L22.71,3.83 C22.85,3.73666667 22.92,3.59666667 22.92,3.41 C22.92,2.75666667 22.57,2.17333333 21.87,1.66 C21.17,1.14666667 20.5166667,0.89 19.91,0.89 C18.37,0.89 16.7016667,1.29833333 14.905,2.115 C13.1083333,2.93166667 11.4283333,3.84166667 9.865,4.845 C8.30166667,5.84833333 6.98333333,6.78166667 5.91,7.645 C4.83666667,8.50833333 4.23,8.98666667 4.09,9.08 C3.99666667,9.08 3.85666667,8.975 3.67,8.765 C3.48333333,8.555 3.34333333,8.45 3.25,8.45 C2.78333333,8.45 2.48,8.64833333 2.34,9.045 C2.2,9.44166667 2.13,9.82666667 2.13,10.2 L2.13,10.2 L4.09,23.57 C3.81,23.7566667 3.48333333,23.9433333 3.11,24.13 C2.73666667,24.3166667 2.38666667,24.5266667 2.06,24.76 C1.73333333,24.9933333 1.45333333,25.25 1.22,25.53 C0.986666667,25.81 0.87,26.1366667 0.87,26.51 C0.87,26.8833333 1.02166667,27.245 1.325,27.595 C1.62833333,27.945 1.99,28.12 2.41,28.12 C2.97,28.12 3.50666667,28.0383333 4.02,27.875 C4.53333333,27.7116667 4.86,27.63 5,27.63 C5.04666667,27.63 5.14,27.98 5.28,28.68 C5.42,29.38 5.595,30.2666667 5.805,31.34 C6.015,32.4133333 6.27166667,33.5566667 6.575,34.77 C6.87833333,35.9833333 7.19333333,37.1266667 7.52,38.2 C7.84666667,39.2733333 8.20833333,40.16 8.605,40.86 C9.00166667,41.56 9.38666667,41.91 9.76,41.91 Z M28.33625,35.89 C28.6629167,35.89 29.0245833,35.68 29.42125,35.26 C29.8179167,34.84 30.01625,34.4433333 30.01625,34.07 C30.01625,33.79 29.9579167,33.4983333 29.84125,33.195 C29.7245833,32.8916667 29.6079167,32.46 29.49125,31.9 C29.3745833,31.34 29.2579167,30.6166667 29.14125,29.73 C29.0245833,28.8433333 28.96625,27.6533333 28.96625,26.16 C28.96625,25.2733333 29.0245833,24.515 29.14125,23.885 C29.2579167,23.255 29.5145833,22.73 29.91125,22.31 C30.3079167,21.89 30.85625,21.5866667 31.55625,21.4 C32.25625,21.2133333 33.1895833,21.12 34.35625,21.12 C34.49625,21.12 34.6829167,21.1666667 34.91625,21.26 C35.1495833,21.3533333 35.61625,21.4 36.31625,21.4 C36.5495833,21.4 36.8529167,21.365 37.22625,21.295 C37.5995833,21.225 37.9729167,21.12 38.34625,20.98 C38.7195833,20.84 39.04625,20.665 39.32625,20.455 C39.60625,20.245 39.74625,19.9766667 39.74625,19.65 C39.74625,19.3233333 39.64125,19.0783333 39.43125,18.915 C39.22125,18.7516667 39.04625,18.6466667 38.90625,18.6 C38.2995833,18.3666667 37.68125,18.215 37.05125,18.145 C36.42125,18.075 35.47625,18.04 34.21625,18.04 C32.8629167,18.04 31.7195833,18.25 30.78625,18.67 C29.8529167,19.09 29.17625,19.3 28.75625,19.3 C28.5695833,19.3 28.4179167,19.2183333 28.30125,19.055 C28.1845833,18.8916667 28.0795833,18.705 27.98625,18.495 C27.8929167,18.285 27.77625,18.0983333 27.63625,17.935 C27.49625,17.7716667 27.3095833,17.69 27.07625,17.69 C26.79625,17.69 26.51625,17.8533333 26.23625,18.18 C25.95625,18.5066667 25.6995833,18.9383333 25.46625,19.475 C25.2329167,20.0116667 25.04625,20.6416667 24.90625,21.365 C24.76625,22.0883333 24.69625,22.8466667 24.69625,23.64 C24.69625,24.34 24.7895833,25.3666667 24.97625,26.72 C25.1629167,28.0733333 25.4079167,29.4383333 25.71125,30.815 C26.0145833,32.1916667 26.3879167,33.3816667 26.83125,34.385 C27.2745833,35.3883333 27.77625,35.89 28.33625,35.89 Z M63.2925,37.36 C65.1591667,37.36 66.9558333,36.9516667 68.6825,36.135 C70.4091667,35.3183333 71.9258333,34.3266667 73.2325,33.16 C74.5391667,31.9933333 75.5775,30.7916667 76.3475,29.555 C77.1175,28.3183333 77.5025,27.28 77.5025,26.44 C77.5025,25.8333333 77.1991667,25.53 76.5925,25.53 C76.2191667,25.53 75.7525,25.9616667 75.1925,26.825 C74.6325,27.6883333 73.8741667,28.645 72.9175,29.695 C71.9608333,30.745 70.7708333,31.7016667 69.3475,32.565 C67.9241667,33.4283333 66.1858333,33.86 64.1325,33.86 C62.4991667,33.86 61.1925,33.5683333 60.2125,32.985 C59.2325,32.4016667 58.4625,31.655 57.9025,30.745 C57.3425,29.835 56.9691667,28.7966667 56.7825,27.63 C56.5958333,26.4633333 56.5025,25.2733333 56.5025,24.06 C56.5025,23.8266667 56.5258333,23.5816667 56.5725,23.325 C56.6191667,23.0683333 56.6425,22.7766667 56.6425,22.45 C56.6425,21.9366667 56.5841667,21.5633333 56.4675,21.33 C56.3508333,21.0966667 56.1875,20.9216667 55.9775,20.805 C55.7675,20.6883333 55.5341667,20.595 55.2775,20.525 C55.0208333,20.455 54.7758333,20.3266667 54.5425,20.14 L54.5425,20.14 L54.5425,18.04 C54.5425,17.62 54.4608333,17.1883333 54.2975,16.745 C54.1341667,16.3016667 53.7958333,16.08 53.2825,16.08 C51.9291667,16.08 50.7508333,16.7333333 49.7475,18.04 C48.7441667,19.3466667 47.9158333,20.84 47.2625,22.52 C46.6091667,24.2 46.1191667,25.8216667 45.7925,27.385 C45.4658333,28.9483333 45.3025,30.01 45.3025,30.57 C45.3025,30.6633333 45.3491667,31.06 45.4425,31.76 C45.5358333,32.46 45.6991667,33.195 45.9325,33.965 C46.1658333,34.735 46.4808333,35.435 46.8775,36.065 C47.2741667,36.695 47.7758333,37.01 48.3825,37.01 C48.9891667,37.01 49.5725,36.765 50.1325,36.275 C50.6925,35.785 51.2058333,35.2016667 51.6725,34.525 C52.1391667,33.8483333 52.5708333,33.1833333 52.9675,32.53 C53.3641667,31.8766667 53.7025,31.41 53.9825,31.13 C54.3091667,32.11 54.8225,32.985 55.5225,33.755 C56.2225,34.525 57.0158333,35.1783333 57.9025,35.715 C58.7891667,36.2516667 59.6991667,36.66 60.6325,36.94 C61.5658333,37.22 62.4525,37.36 63.2925,37.36 Z M49.7125,32.67 C49.4791667,32.4366667 49.2691667,31.9466667 49.0825,31.2 C48.8958333,30.4533333 48.8025,29.9166667 48.8025,29.59 C48.8025,28.9833333 48.9191667,28.2016667 49.1525,27.245 C49.3858333,26.2883333 49.7008333,25.3433333 50.0975,24.41 C50.4941667,23.4766667 50.9141667,22.66 51.3575,21.96 C51.8008333,21.26 52.2325,20.8633333 52.6525,20.77 C52.6525,20.8633333 52.6991667,20.945 52.7925,21.015 C52.8858333,21.085 52.9325,21.19 52.9325,21.33 C52.9325,21.5633333 52.8858333,21.75 52.7925,21.89 C52.6991667,22.03 52.6525,22.1933333 52.6525,22.38 C52.6525,22.52 52.6991667,22.6716667 52.7925,22.835 C52.8858333,22.9983333 52.9325,23.1733333 52.9325,23.36 C52.9325,24.8533333 52.5941667,26.37 51.9175,27.91 C51.2408333,29.45 50.5058333,31.0366667 49.7125,32.67 Z M80.04875,36.73 C80.2354167,36.73 80.3754167,36.6833333 80.46875,36.59 C81.9620833,34.91 83.0470833,33.0666667 83.72375,31.06 C84.4004167,29.0533333 84.9954167,27.0233333 85.50875,24.97 C86.2554167,27.1166667 86.9320833,28.7383333 87.53875,29.835 C88.1454167,30.9316667 88.8454167,31.8766667 89.63875,32.67 C90.3854167,33.4166667 91.3770833,33.965 92.61375,34.315 C93.8504167,34.665 94.8654167,34.84 95.65875,34.84 C95.8920833,34.84 96.1604167,34.7583333 96.46375,34.595 C96.7670833,34.4316667 97.0470833,34.2333333 97.30375,34 C97.5604167,33.7666667 97.7820833,33.51 97.96875,33.23 C98.1554167,32.95 98.24875,32.67 98.24875,32.39 C98.24875,32.2966667 98.1670833,32.0866667 98.00375,31.76 C97.8404167,31.4333333 97.6654167,31.27 97.47875,31.27 C97.33875,31.27 97.1054167,31.3283333 96.77875,31.445 C96.4520833,31.5616667 96.14875,31.62 95.86875,31.62 C95.2620833,31.62 94.5504167,31.48 93.73375,31.2 C92.9170833,30.92 92.1820833,30.4766667 91.52875,29.87 C90.82875,29.2633333 90.2804167,28.5983333 89.88375,27.875 C89.4870833,27.1516667 89.18375,26.37 88.97375,25.53 C88.76375,24.69 88.58875,23.745 88.44875,22.695 C88.30875,21.645 88.1220833,20.4433333 87.88875,19.09 C87.7020833,18.53 87.46875,18.1566667 87.18875,17.97 C86.90875,17.7833333 86.5354167,17.69 86.06875,17.69 C85.64875,17.69 85.22875,18.1683333 84.80875,19.125 C84.38875,20.0816667 83.96875,21.2483333 83.54875,22.625 C83.12875,24.0016667 82.6970833,25.4483333 82.25375,26.965 C81.8104167,28.4816667 81.3320833,29.8 80.81875,30.92 C80.67875,30.7333333 80.57375,30.43 80.50375,30.01 C80.43375,29.59 80.39875,29.2633333 80.39875,29.03 L80.39875,29.03 L80.39875,17.97 C80.39875,17.4566667 80.3754167,16.99 80.32875,16.57 C80.2820833,16.15 80.0954167,15.94 79.76875,15.94 C79.3954167,15.94 79.0570833,16.08 78.75375,16.36 C78.4504167,16.64 78.2754167,16.8266667 78.22875,16.92 C77.9954167,17.48 77.8554167,18.145 77.80875,18.915 C77.7620833,19.685 77.73875,20.3033333 77.73875,20.77 C77.73875,21.75 77.77375,22.9983333 77.84375,24.515 C77.91375,26.0316667 77.9954167,27.525 78.08875,28.995 C78.1820833,30.465 78.26375,31.795 78.33375,32.985 C78.40375,34.175 78.43875,34.9333333 78.43875,35.26 C78.43875,35.5866667 78.6254167,35.9133333 78.99875,36.24 C79.3720833,36.5666667 79.7220833,36.73 80.04875,36.73 Z M108.215,38.41 C109.521667,38.41 110.886667,38.0483333 112.31,37.325 C113.733333,36.6016667 115.016667,35.7966667 116.16,34.91 C117.303333,34.0233333 118.26,33.1716667 119.03,32.355 C119.8,31.5383333 120.231667,31.06 120.325,30.92 C120.465,30.5933333 120.605,30.185 120.745,29.695 C120.885,29.205 120.955,28.7266667 120.955,28.26 C120.955,27.4666667 120.698333,27.07 120.185,27.07 C119.905,27.07 119.461667,27.4666667 118.855,28.26 C118.248333,29.0533333 117.455,29.94 116.475,30.92 C115.495,31.9 114.316667,32.7866667 112.94,33.58 C111.563333,34.3733333 109.988333,34.77 108.215,34.77 C107.235,34.77 106.29,34.4083333 105.38,33.685 C104.47,32.9616667 104.015,31.9933333 104.015,30.78 C104.015,29.5666667 104.283333,28.155 104.82,26.545 C105.356667,24.935 106.185,23.36 107.305,21.82 C107.865,21.0266667 108.401667,20.385 108.915,19.895 C109.428333,19.405 109.871667,19.0083333 110.245,18.705 C110.618333,18.4016667 110.91,18.1216667 111.12,17.865 C111.33,17.6083333 111.435,17.2933333 111.435,16.92 C111.435,16.6866667 111.26,16.4533333 110.91,16.22 C110.56,15.9866667 110.175,15.87 109.755,15.87 C109.568333,15.87 109.253333,16.01 108.81,16.29 C108.366667,16.57 107.888333,16.9316667 107.375,17.375 C106.861667,17.8183333 106.336667,18.3083333 105.8,18.845 C105.263333,19.3816667 104.831667,19.9066667 104.505,20.42 C103.758333,21.4933333 103.011667,22.94 102.265,24.76 C101.518333,26.58 101.145,28.61 101.145,30.85 C101.145,32.2033333 101.366667,33.3466667 101.81,34.28 C102.253333,35.2133333 102.825,35.995 103.525,36.625 C104.225,37.255 104.983333,37.71 105.8,37.99 C106.616667,38.27 107.421667,38.41 108.215,38.41 Z M125.46125,11.39 C125.74125,11.39 126.114583,11.2733333 126.58125,11.04 C127.047917,10.8066667 127.502917,10.5383333 127.94625,10.235 C128.389583,9.93166667 128.774583,9.64 129.10125,9.36 C129.427917,9.08 129.59125,8.89333333 129.59125,8.8 C129.59125,8.52 129.392917,8.26333333 128.99625,8.03 C128.599583,7.79666667 128.144583,7.58666667 127.63125,7.4 C127.117917,7.21333333 126.61625,7.06166667 126.12625,6.945 C125.63625,6.82833333 125.32125,6.77 125.18125,6.77 C124.434583,6.77 123.827917,7.06166667 123.36125,7.645 C122.894583,8.22833333 122.66125,8.84666667 122.66125,9.5 C122.66125,9.92 122.777917,10.2583333 123.01125,10.515 C123.244583,10.7716667 123.512917,10.97 123.81625,11.11 C124.119583,11.25 124.422917,11.3316667 124.72625,11.355 C125.029583,11.3783333 125.274583,11.39 125.46125,11.39 Z M130.08125,36.17 C130.314583,36.17 130.67625,36.0533333 131.16625,35.82 C131.65625,35.5866667 131.90125,35.3066667 131.90125,34.98 C131.90125,34.84 131.819583,34.385 131.65625,33.615 C131.492917,32.845 131.27125,31.935 130.99125,30.885 C130.71125,29.835 130.384583,28.715 130.01125,27.525 C129.637917,26.335 129.229583,25.2383333 128.78625,24.235 C128.342917,23.2316667 127.887917,22.4033333 127.42125,21.75 C126.954583,21.0966667 126.51125,20.77 126.09125,20.77 C125.717917,20.77 125.402917,21.05 125.14625,21.61 C124.889583,22.17 124.76125,22.7766667 124.76125,23.43 C124.76125,23.4766667 124.83125,23.7333333 124.97125,24.2 C125.11125,24.6666667 125.28625,25.2033333 125.49625,25.81 C125.70625,26.4166667 125.927917,27.0466667 126.16125,27.7 C126.394583,28.3533333 126.58125,28.9133333 126.72125,29.38 C126.814583,29.66 126.954583,30.1616667 127.14125,30.885 C127.327917,31.6083333 127.56125,32.3666667 127.84125,33.16 C128.12125,33.9533333 128.447917,34.6533333 128.82125,35.26 C129.194583,35.8666667 129.614583,36.17 130.08125,36.17 Z M138.9975,37.01 C139.184167,37.01 139.615833,36.9983333 140.2925,36.975 C140.969167,36.9516667 141.750833,36.8816667 142.6375,36.765 C143.524167,36.6483333 144.4575,36.4733333 145.4375,36.24 C146.4175,36.0066667 147.315833,35.6916667 148.1325,35.295 C148.949167,34.8983333 149.625833,34.4083333 150.1625,33.825 C150.699167,33.2416667 150.9675,32.5533333 150.9675,31.76 C150.9675,31.0133333 150.7225,30.3483333 150.2325,29.765 C149.7425,29.1816667 149.124167,28.6333333 148.3775,28.12 C147.630833,27.6066667 146.825833,27.1283333 145.9625,26.685 C145.099167,26.2416667 144.294167,25.7983333 143.5475,25.355 C142.800833,24.9116667 142.1825,24.4333333 141.6925,23.92 C141.2025,23.4066667 140.9575,22.8466667 140.9575,22.24 C140.9575,20.98 141.330833,20.1283333 142.0775,19.685 C142.824167,19.2416667 143.804167,19.02 145.0175,19.02 C145.2975,19.02 145.670833,19.055 146.1375,19.125 C146.604167,19.195 147.059167,19.2883333 147.5025,19.405 C147.945833,19.5216667 148.3425,19.6266667 148.6925,19.72 C149.0425,19.8133333 149.2875,19.8833333 149.4275,19.93 C149.800833,19.4166667 150.069167,19.0666667 150.2325,18.88 C150.395833,18.6933333 150.4775,18.5533333 150.4775,18.46 C150.4775,18.0866667 150.255833,17.7483333 149.8125,17.445 C149.369167,17.1416667 148.8675,16.885 148.3075,16.675 C147.7475,16.465 147.2225,16.3133333 146.7325,16.22 C146.2425,16.1266667 145.950833,16.08 145.8575,16.08 C144.7375,16.08 143.675833,16.1616667 142.6725,16.325 C141.669167,16.4883333 140.7825,16.7566667 140.0125,17.13 C139.2425,17.5033333 138.635833,18.0166667 138.1925,18.67 C137.749167,19.3233333 137.5275,20.1633333 137.5275,21.19 C137.5275,22.8233333 137.830833,24.1183333 138.4375,25.075 C139.044167,26.0316667 140.094167,26.9766667 141.5875,27.91 C143.500833,29.0766667 144.935833,29.905 145.8925,30.395 C146.849167,30.885 147.3275,31.1766667 147.3275,31.27 C147.3275,31.83 146.8725,32.285 145.9625,32.635 C145.0525,32.985 144.025833,33.2533333 142.8825,33.44 C141.739167,33.6266667 140.665833,33.755 139.6625,33.825 C138.659167,33.895 138.064167,33.93 137.8775,33.93 C137.690833,33.93 137.434167,33.895 137.1075,33.825 C136.780833,33.755 136.5475,33.72 136.4075,33.72 C136.080833,33.72 135.894167,33.825 135.8475,34.035 C135.800833,34.245 135.7775,34.49 135.7775,34.77 C135.7775,35.61 136.0575,36.1933333 136.6175,36.52 C137.1775,36.8466667 137.970833,37.01 138.9975,37.01 Z M163.31375,38.41 C164.620417,38.41 165.985417,38.0483333 167.40875,37.325 C168.832083,36.6016667 170.115417,35.7966667 171.25875,34.91 C172.402083,34.0233333 173.35875,33.1716667 174.12875,32.355 C174.89875,31.5383333 175.330417,31.06 175.42375,30.92 C175.56375,30.5933333 175.70375,30.185 175.84375,29.695 C175.98375,29.205 176.05375,28.7266667 176.05375,28.26 C176.05375,27.4666667 175.797083,27.07 175.28375,27.07 C175.00375,27.07 174.560417,27.4666667 173.95375,28.26 C173.347083,29.0533333 172.55375,29.94 171.57375,30.92 C170.59375,31.9 169.415417,32.7866667 168.03875,33.58 C166.662083,34.3733333 165.087083,34.77 163.31375,34.77 C162.33375,34.77 161.38875,34.4083333 160.47875,33.685 C159.56875,32.9616667 159.11375,31.9933333 159.11375,30.78 C159.11375,29.5666667 159.382083,28.155 159.91875,26.545 C160.455417,24.935 161.28375,23.36 162.40375,21.82 C162.96375,21.0266667 163.500417,20.385 164.01375,19.895 C164.527083,19.405 164.970417,19.0083333 165.34375,18.705 C165.717083,18.4016667 166.00875,18.1216667 166.21875,17.865 C166.42875,17.6083333 166.53375,17.2933333 166.53375,16.92 C166.53375,16.6866667 166.35875,16.4533333 166.00875,16.22 C165.65875,15.9866667 165.27375,15.87 164.85375,15.87 C164.667083,15.87 164.352083,16.01 163.90875,16.29 C163.465417,16.57 162.987083,16.9316667 162.47375,17.375 C161.960417,17.8183333 161.435417,18.3083333 160.89875,18.845 C160.362083,19.3816667 159.930417,19.9066667 159.60375,20.42 C158.857083,21.4933333 158.110417,22.94 157.36375,24.76 C156.617083,26.58 156.24375,28.61 156.24375,30.85 C156.24375,32.2033333 156.465417,33.3466667 156.90875,34.28 C157.352083,35.2133333 157.92375,35.995 158.62375,36.625 C159.32375,37.255 160.082083,37.71 160.89875,37.99 C161.715417,38.27 162.520417,38.41 163.31375,38.41 Z M187.84,33.51 C188.586667,33.51 189.275,33.3116667 189.905,32.915 C190.535,32.5183333 191.083333,31.97 191.55,31.27 C192.016667,30.57 192.39,29.7533333 192.67,28.82 C192.95,27.8866667 193.09,26.9066667 193.09,25.88 C193.09,25.0866667 193.031667,24.0833333 192.915,22.87 C192.798333,21.6566667 192.553333,20.4433333 192.18,19.23 C192.133333,19.0433333 191.853333,18.7866667 191.34,18.46 C190.826667,18.1333333 190.313333,17.9466667 189.8,17.9 C189.706667,17.5266667 189.531667,17.2 189.275,16.92 C189.018333,16.64 188.726667,16.4066667 188.4,16.22 C188.073333,16.0333333 187.758333,15.8933333 187.455,15.8 C187.151667,15.7066667 186.93,15.66 186.79,15.66 C186.183333,15.66 185.6,15.9633333 185.04,16.57 C184.48,17.1766667 183.978333,17.9233333 183.535,18.81 C183.091667,19.6966667 182.741667,20.665 182.485,21.715 C182.228333,22.765 182.1,23.71 182.1,24.55 C182.1,25.0633333 182.158333,25.8216667 182.275,26.825 C182.391667,27.8283333 182.648333,28.82 183.045,29.8 C183.441667,30.78 184.013333,31.6433333 184.76,32.39 C185.506667,33.1366667 186.533333,33.51 187.84,33.51 Z M187.49,30.36 C187.023333,30.36 186.65,30.1616667 186.37,29.765 C186.09,29.3683333 185.868333,28.89 185.705,28.33 C185.541667,27.77 185.436667,27.175 185.39,26.545 C185.343333,25.915 185.32,25.3433333 185.32,24.83 C185.32,24.3166667 185.343333,23.78 185.39,23.22 C185.436667,22.66 185.541667,22.135 185.705,21.645 C185.868333,21.155 186.113333,20.7583333 186.44,20.455 C186.766667,20.1516667 187.21,20 187.77,20 C187.863333,20 187.968333,20.0233333 188.085,20.07 C188.201667,20.1166667 188.353333,20.14 188.54,20.14 C188.68,20.14 188.796667,20.1166667 188.89,20.07 C189.31,20.8633333 189.59,21.645 189.73,22.415 C189.87,23.185 189.94,23.92 189.94,24.62 C189.94,24.9 189.905,25.355 189.835,25.985 C189.765,26.615 189.636667,27.2566667 189.45,27.91 C189.263333,28.5633333 189.006667,29.135 188.68,29.625 C188.353333,30.115 187.956667,30.36 187.49,30.36 Z M216.6625,46.6 C217.9225,46.6 219.579167,46.32 221.6325,45.76 C223.685833,45.2 225.8675,44.4416667 228.1775,43.485 C230.4875,42.5283333 232.785833,41.4433333 235.0725,40.23 C237.359167,39.0166667 239.365833,37.7566667 241.0925,36.45 C242.725833,35.2366667 244.230833,33.9883333 245.6075,32.705 C246.984167,31.4216667 248.185833,30.1033333 249.2125,28.75 C250.239167,27.3966667 251.0325,25.9966667 251.5925,24.55 C252.1525,23.1033333 252.4325,21.5866667 252.4325,20 C252.4325,18.6 251.965833,17.2466667 251.0325,15.94 C250.099167,14.6333333 248.8625,13.42 247.3225,12.3 C245.7825,11.18 244.044167,10.1533333 242.1075,9.22 C240.170833,8.28666667 238.210833,7.49333333 236.2275,6.84 C234.244167,6.18666667 232.319167,5.67333333 230.4525,5.3 C228.585833,4.92666667 226.9525,4.74 225.5525,4.74 C224.7125,4.74 223.8025,4.89166667 222.8225,5.195 C221.8425,5.49833333 220.9325,5.895 220.0925,6.385 C219.2525,6.875 218.540833,7.435 217.9575,8.065 C217.374167,8.695 217.0825,9.31333333 217.0825,9.92 C217.0825,10.3866667 217.374167,10.7016667 217.9575,10.865 C218.540833,11.0283333 218.995833,11.11 219.3225,11.11 C219.415833,11.11 219.614167,10.9583333 219.9175,10.655 C220.220833,10.3516667 220.594167,10.0133333 221.0375,9.64 C221.480833,9.26666667 222.029167,8.92833333 222.6825,8.625 C223.335833,8.32166667 224.059167,8.17 224.8525,8.17 C225.225833,8.17 225.634167,8.18166667 226.0775,8.205 C226.520833,8.22833333 226.9175,8.24 227.2675,8.24 C227.6175,8.24 227.8975,8.25166667 228.1075,8.275 C228.3175,8.29833333 228.4225,8.31 228.4225,8.31 C228.515833,9.94333333 228.749167,12.1483333 229.1225,14.925 C229.495833,17.7016667 230.149167,20.6533333 231.0825,23.78 C231.735833,26.02 232.179167,27.91 232.4125,29.45 C232.645833,30.99 232.844167,32.2383333 233.0075,33.195 C233.170833,34.1516667 233.3575,34.8283333 233.5675,35.225 C233.7775,35.6216667 234.1625,35.82 234.7225,35.82 C234.955833,35.82 235.154167,35.5866667 235.3175,35.12 C235.480833,34.6533333 235.5625,34.21 235.5625,33.79 C235.5625,33.4166667 235.5275,32.8916667 235.4575,32.215 C235.3875,31.5383333 235.3175,30.815 235.2475,30.045 C235.1775,29.275 235.084167,28.5283333 234.9675,27.805 C234.850833,27.0816667 234.769167,26.4866667 234.7225,26.02 C234.675833,25.6 234.594167,25.075 234.4775,24.445 C234.360833,23.815 234.115833,22.8466667 233.7425,21.54 C233.415833,20.3733333 233.124167,19.1016667 232.8675,17.725 C232.610833,16.3483333 232.389167,15.0533333 232.2025,13.84 C232.015833,12.6266667 231.875833,11.565 231.7825,10.655 C231.689167,9.745 231.619167,9.17333333 231.5725,8.94 C233.345833,9.22 235.259167,9.745 237.3125,10.515 C239.365833,11.285 241.2675,12.195 243.0175,13.245 C244.7675,14.295 246.214167,15.415 247.3575,16.605 C248.500833,17.795 249.0725,18.95 249.0725,20.07 C249.0725,21.6566667 248.6525,23.2783333 247.8125,24.935 C246.9725,26.5916667 245.864167,28.1783333 244.4875,29.695 C243.110833,31.2116667 241.559167,32.635 239.8325,33.965 C238.105833,35.295 236.355833,36.45 234.5825,37.43 C230.475833,39.67 226.940833,41.245 223.9775,42.155 C221.014167,43.065 218.645833,43.6133333 216.8725,43.8 L216.8725,43.8 L216.8725,43.66 C216.8725,43.6133333 216.884167,43.5433333 216.9075,43.45 C216.930833,43.3566667 216.9425,43.24 216.9425,43.1 C216.9425,42.82 216.860833,42.5633333 216.6975,42.33 C216.534167,42.0966667 216.265833,41.98 215.8925,41.98 C215.519167,41.98 215.145833,42.33 214.7725,43.03 C214.399167,43.73 214.2125,44.3366667 214.2125,44.85 C214.2125,45.5966667 214.410833,46.075 214.8075,46.285 C215.204167,46.495 215.8225,46.6 216.6625,46.6 Z M256.58875,13.28 C256.775417,13.28 257.00875,13.2566667 257.28875,13.21 C257.56875,13.1633333 257.895417,13.0466667 258.26875,12.86 C258.735417,12.6266667 259.377083,12.195 260.19375,11.565 C261.010417,10.935 261.80375,10.2466667 262.57375,9.5 C263.34375,8.75333333 264.00875,8.03 264.56875,7.33 C265.12875,6.63 265.40875,6.09333333 265.40875,5.72 C265.40875,5.48666667 265.245417,5.27666667 264.91875,5.09 C264.592083,4.90333333 264.265417,4.81 263.93875,4.81 C263.705417,4.81 263.27375,5.04333333 262.64375,5.51 C262.01375,5.97666667 261.31375,6.525 260.54375,7.155 L260.54375,7.155 L258.23375,9.045 C257.46375,9.675 256.845417,10.13 256.37875,10.41 C255.865417,10.69 255.39875,10.9116667 254.97875,11.075 C254.55875,11.2383333 254.34875,11.3666667 254.34875,11.46 C254.34875,11.8333333 254.62875,12.23 255.18875,12.65 C255.74875,13.07 256.215417,13.28 256.58875,13.28 Z M261.83875,36.17 C262.072083,36.17 262.43375,36.0533333 262.92375,35.82 C263.41375,35.5866667 263.65875,35.3066667 263.65875,34.98 C263.65875,34.84 263.577083,34.385 263.41375,33.615 C263.250417,32.845 263.02875,31.935 262.74875,30.885 C262.46875,29.835 262.142083,28.715 261.76875,27.525 C261.395417,26.335 260.987083,25.2383333 260.54375,24.235 C260.100417,23.2316667 259.645417,22.4033333 259.17875,21.75 C258.712083,21.0966667 258.26875,20.77 257.84875,20.77 C257.475417,20.77 257.160417,21.05 256.90375,21.61 C256.647083,22.17 256.51875,22.7766667 256.51875,23.43 C256.51875,23.4766667 256.58875,23.7333333 256.72875,24.2 C256.86875,24.6666667 257.04375,25.2033333 257.25375,25.81 C257.46375,26.4166667 257.685417,27.0466667 257.91875,27.7 C258.152083,28.3533333 258.33875,28.9133333 258.47875,29.38 C258.572083,29.66 258.712083,30.1616667 258.89875,30.885 C259.085417,31.6083333 259.31875,32.3666667 259.59875,33.16 C259.87875,33.9533333 260.205417,34.6533333 260.57875,35.26 C260.952083,35.8666667 261.372083,36.17 261.83875,36.17 Z M286.015,37.36 C287.881667,37.36 289.678333,36.9516667 291.405,36.135 C293.131667,35.3183333 294.648333,34.3266667 295.955,33.16 C297.261667,31.9933333 298.3,30.7916667 299.07,29.555 C299.84,28.3183333 300.225,27.28 300.225,26.44 C300.225,25.8333333 299.921667,25.53 299.315,25.53 C298.941667,25.53 298.475,25.9616667 297.915,26.825 C297.355,27.6883333 296.596667,28.645 295.64,29.695 C294.683333,30.745 293.493333,31.7016667 292.07,32.565 C290.646667,33.4283333 288.908333,33.86 286.855,33.86 C285.221667,33.86 283.915,33.5683333 282.935,32.985 C281.955,32.4016667 281.185,31.655 280.625,30.745 C280.065,29.835 279.691667,28.7966667 279.505,27.63 C279.318333,26.4633333 279.225,25.2733333 279.225,24.06 C279.225,23.8266667 279.248333,23.5816667 279.295,23.325 C279.341667,23.0683333 279.365,22.7766667 279.365,22.45 C279.365,21.9366667 279.306667,21.5633333 279.19,21.33 C279.073333,21.0966667 278.91,20.9216667 278.7,20.805 C278.49,20.6883333 278.256667,20.595 278,20.525 C277.743333,20.455 277.498333,20.3266667 277.265,20.14 L277.265,20.14 L277.265,18.04 C277.265,17.62 277.183333,17.1883333 277.02,16.745 C276.856667,16.3016667 276.518333,16.08 276.005,16.08 C274.651667,16.08 273.473333,16.7333333 272.47,18.04 C271.466667,19.3466667 270.638333,20.84 269.985,22.52 C269.331667,24.2 268.841667,25.8216667 268.515,27.385 C268.188333,28.9483333 268.025,30.01 268.025,30.57 C268.025,30.6633333 268.071667,31.06 268.165,31.76 C268.258333,32.46 268.421667,33.195 268.655,33.965 C268.888333,34.735 269.203333,35.435 269.6,36.065 C269.996667,36.695 270.498333,37.01 271.105,37.01 C271.711667,37.01 272.295,36.765 272.855,36.275 C273.415,35.785 273.928333,35.2016667 274.395,34.525 C274.861667,33.8483333 275.293333,33.1833333 275.69,32.53 C276.086667,31.8766667 276.425,31.41 276.705,31.13 C277.031667,32.11 277.545,32.985 278.245,33.755 C278.945,34.525 279.738333,35.1783333 280.625,35.715 C281.511667,36.2516667 282.421667,36.66 283.355,36.94 C284.288333,37.22 285.175,37.36 286.015,37.36 Z M272.435,32.67 C272.201667,32.4366667 271.991667,31.9466667 271.805,31.2 C271.618333,30.4533333 271.525,29.9166667 271.525,29.59 C271.525,28.9833333 271.641667,28.2016667 271.875,27.245 C272.108333,26.2883333 272.423333,25.3433333 272.82,24.41 C273.216667,23.4766667 273.636667,22.66 274.08,21.96 C274.523333,21.26 274.955,20.8633333 275.375,20.77 C275.375,20.8633333 275.421667,20.945 275.515,21.015 C275.608333,21.085 275.655,21.19 275.655,21.33 C275.655,21.5633333 275.608333,21.75 275.515,21.89 C275.421667,22.03 275.375,22.1933333 275.375,22.38 C275.375,22.52 275.421667,22.6716667 275.515,22.835 C275.608333,22.9983333 275.655,23.1733333 275.655,23.36 C275.655,24.8533333 275.316667,26.37 274.64,27.91 C273.963333,29.45 273.228333,31.0366667 272.435,32.67 Z M304.17125,35.82 C304.917917,35.82 305.874583,35.6216667 307.04125,35.225 C308.207917,34.8283333 309.42125,34.35 310.68125,33.79 C311.94125,33.23 313.154583,32.67 314.32125,32.11 C315.487917,31.55 316.467917,31.1066667 317.26125,30.78 C318.52125,30.2666667 319.897917,29.8583333 321.39125,29.555 C322.884583,29.2516667 324.097917,28.89 325.03125,28.47 C325.264583,28.3766667 325.41625,28.1433333 325.48625,27.77 C325.55625,27.3966667 325.59125,27.0233333 325.59125,26.65 C325.59125,26.37 325.392917,26.0666667 324.99625,25.74 C324.599583,25.4133333 324.05125,25.25 323.35125,25.25 C322.93125,25.25 322.487917,25.32 322.02125,25.46 C319.22125,26.44 316.87625,27.35 314.98625,28.19 C313.09625,29.03 311.55625,29.7533333 310.36625,30.36 C309.17625,30.9666667 308.242917,31.4333333 307.56625,31.76 C306.889583,32.0866667 306.364583,32.25 305.99125,32.25 C305.85125,32.25 305.78125,32.1566667 305.78125,31.97 L305.78125,31.97 L306.20125,31.13 L316.63125,17.76 C316.304583,17.1533333 315.849583,16.6516667 315.26625,16.255 C314.682917,15.8583333 314.134583,15.66 313.62125,15.66 C312.92125,15.66 311.929583,15.7883333 310.64625,16.045 C309.362917,16.3016667 308.02125,16.605 306.62125,16.955 C305.22125,17.305 303.902917,17.6433333 302.66625,17.97 C301.429583,18.2966667 300.507917,18.53 299.90125,18.67 C299.667917,18.67 299.51625,18.74 299.44625,18.88 C299.37625,19.02 299.34125,19.16 299.34125,19.3 C299.34125,19.8133333 299.469583,20.28 299.72625,20.7 C299.982917,21.12 300.344583,21.33 300.81125,21.33 C301.51125,21.33 302.432917,21.2016667 303.57625,20.945 C304.719583,20.6883333 305.827917,20.3966667 306.90125,20.07 C308.16125,19.6966667 309.514583,19.2766667 310.96125,18.81 C311.147917,18.81 311.287917,18.845 311.38125,18.915 C311.474583,18.985 311.544583,19.02 311.59125,19.02 C311.124583,19.8133333 310.342917,20.8516667 309.24625,22.135 C308.149583,23.4183333 307.029583,24.76 305.88625,26.16 C304.742917,27.56 303.739583,28.925 302.87625,30.255 C302.012917,31.585 301.58125,32.7166667 301.58125,33.65 C301.58125,34.1633333 301.86125,34.6533333 302.42125,35.12 C302.98125,35.5866667 303.564583,35.82 304.17125,35.82 Z" id="FranciscoDíaz" fill="#FFFFFF" fill-rule="nonzero"></path>
    </g>
</svg>