<svg xmlns="http://www.w3.org/2000/svg" width="299.985" height="98.485" viewBox="0 0 993 326">
  <defs>
    <style>
      .cls-1 {
        fill: #000;
        fill-rule: evenodd;
      }
    </style>
  </defs>
  <path class="cls-1" d="M633,237c5.766,0.611,5.628,1.624,9,4v1c0.268,25.922-12.248,45.659-20,65q-12.5,35.5-25,71c-3.459,9.856-18.241,39.288-9,52,1.517,1.926,1.791,1.77,4,3l27-12,2,3v3c-9.471,5.5-23.59,18.069-37,10-16.436-57.356,48.507-133.713,50-189-16.169,5.711-28.835,35.254-38,49q-42.5,63.993-85,128c-9.014,13.57-21.293,47.507-38,52l-1-3c-3.523-9.334,16.024-41.848,20-51,17.547-40.395,48.6-103.581,54-150h-1c-21.2,11.279-34.4,34.935-48,54-31.163,43.676-64.129,88.191-93,134-10.839,17.2-21.212,41.706-37,54l-2-1,70-148c7.215-16.447,24.188-38.105,20-61-24.551-32.446-121.982-3.458-148,8-82.379,36.279-153.478,93.6-206,160L58,528,34,563c9.547-27.605,35.247-52.841,52-75,55.484-73.389,128.192-145.967,220-182,37.516-14.724,121.454-40.3,156-4,1.272,40.213-24.494,74.852-41,103l-28,57q-11,22-22,44h1v-2l37-56,61-92c22.2-33.4,41.364-70.059,74-93,16.455,4.1,5.98,34.371,2,46-14.91,43.56-37.224,83.612-51,126l2-1,43-67C568.048,322.559,595.6,272.452,633,237Zm365,12c7.3,0.339,24.99,1.1,29,7v10h-1c0.44-7.235.52-9.3-5-11-0.67,3-1.33,6-2,9v-7l-5,1-3,7c-1.07-3.443.25-2.66-3-2-26.16,12.162-66.2,60.078-85,85-7.861,10.42-18.5,37.451-31,42v-3c21.271-34.234,83.245-113.789,119-129v-2c-26.363,7.762-81.369,72.345-98,95-7.221,9.837-16.5,33.317-28,38v-3c30.325-48.978,71.8-97.88,119-130-0.33-.667-0.67-1.333-1-2-35.078,21.424-66.438,54.917-91,87l-33,47-2-2c20.544-38.634,55.865-80.282,89-107l34-27c-30.78,7.04-82.994,70.473-101,95-7.751,10.558-17.088,34.379-29,40q-0.5-1-1-2C901.391,331.315,946.051,283.334,998,249Zm8,4v2C1006.98,253.255,1006.91,254.78,1006,253Zm8,1c-0.33.667-.67,1.333-1,2,0.67-.667,1.33-1.333,2-2h-1Zm4,10c0.33,1,.67,2,1,3h-1v-3Zm-8,1c0.33,1,.67,2,1,3h-1v-3Zm15,1c0.33,1,.67,2,1,3h-1v-3Zm-8,1c0.33,0.667.67,1.333,1,2C1017.67,268.333,1017.33,267.667,1017,267Zm-8,1c0.33,0.667.67,1.333,1,2C1009.67,269.333,1009.33,268.667,1009,268Zm7,2c0.33,0.667.67,1.333,1,2C1016.67,271.333,1016.33,270.667,1016,270Zm8,0c0.33,0.667.67,1.333,1,2C1024.67,271.333,1024.33,270.667,1024,270Zm-10,5c0.33,0.667.67,1.333,1,2C1014.67,276.333,1014.33,275.667,1014,275Zm-1,2c0.33,0.667.67,1.333,1,2C1013.67,278.333,1013.33,277.667,1013,277ZM699,349c1.525,2.286,1.826,1.215,1,4-12.214,24.981-44.807,29.724-49,64,12.491,2.541,19.79-12.287,29-17-6.238,8.876-15.3,20.823-29,22l-2-3V406c-7.653,5.927-12.891,14.638-25,16l-2-1v-1c2.713-9.916,9.526-14.921,15-22v-1l-17-2v-4l7-4c-2.9-.531-4.9.794-3-2l5,1-4,7c6.708-.3,12.55.12,16,3-4.281,7.841-10.722,13.387-13,23,9.767-5.756,21.324-13.134,27-23l-10,7C659.843,383.291,680.015,364.788,699,349Zm-4,4-19,20,21-19Zm243,3,6,1,5,6c-3.963,24.312-24.955,26.638-43,37q0.5,1,1,2c8.858,3.061,25.976,16.191,22,28-6.27,37.583-112.571,2.732-116-20h1c4.938,20.379,108.918,56.863,110,14-6.158-14.17-18.984-15.692-27-27v-1c19.729-1.543,45.589-14.233,47-34-2.382-2.284-2.884-2.859-6-2l-2-2ZM612,390h3l3,2v5c-4.967,7.271-19.161,11.658-22,19l3,3c14.346-2.062,19.2-13.574,30-19v1c-8.465,9.442-18.082,16.889-31,22l-5-2q-1-5-2-10C595.736,399.479,602.1,396.223,612,390Zm72,1c3.651,1.059,2.941.814,5,3-3.5,7.573-15.45,21.049-10,27l2-2c8.674-4.59,16.322-19.187,22-27l2,3q-1,8-2,16l19-16c-6.725,1.6-8.473,5.438-13,9,1.933-7.046,8.317-11.716,16-13q0.5,1,1,2c-3.259,10.309-11.105,16.257-17,24l33-25c4.092,1.459,2.674,1.327,5,4l-12,23,24-19c-5.959,8.264-16.177,20.979-29,22v-3l11-18q-0.5-1-1-2l-35,23-1-1,4-10-6,5c-6.434,25.695-36.544,83.574-65,81-4.912-42.034,60.033-56.609,65-97l-2,1c-3.584,9.11-11.6,17.529-20,22l-5-2c-2.03-12.284,6.232-16.779,9-27l-13,10,7-9Zm-72,2c-5.487,5.685-10.935,8.573-15,16v1h1c8.69-3.258,15.852-7.141,18-17h-4Zm82,31c-12.46,25.629-47.867,37.078-55,68q0.5,1,1,2h4C656.877,488.012,704.585,439.12,694,424Zm196,64c-1.36,12.137-11.131,17.955-17,26,12.078-7.093,19.943-23.034,36-25q0.5,1.5,1,3c1.81,7.487-6.973,16.549-11,22v1c13.856-4.766,18.624-33.066,37-25,1.6,8.779-2.428,13.782-6,20l20-14c-4.55,10.4-27.772,27.4-40,20v-5l-12,8-4-1v-1l11-21c-15.5,3.738-21.186,18.942-36,23l-1-1,7-14c-7.425,5.908-17.51,18.794-30,13q-1-3.5-2-7c-6.979,4.074-10,8.52-21,9q-2.5-4-5-8c-5.244,4.4-13.174,12.5-18,3q0.5-2,1-4l-13,8c0.857,61.654-101.227,9.691-115,18-3.246,7.4-12.836,19.521-21,22v-1l17-28v-1c-8.755-1.356-46.526-20.674-34-30-4.129,12.362,29.149,31.516,39,26l30-36c-4.069-3.732-7.8-5.213-11-10q0.5-2.5,1-5c6.563-2.834,18.761.889,26-2l35-36c-7.391,2.832-31.423,18.46-41,10,25.014-.565,33.768-16.545,53-21q0.5,1,1,2c-9.962,19.335-30.205,30.127-43,47v1h4c10.027-7.761,61.384-57.766,80-44l4,3c0.205,35.47-33.289,40.859-57,53q0.5,1,1,2c12.088,4.177,18.578,14.159,27,22h1l12-16-17-2v-4c3.4-1.614,4.278-1.406,6-5l-3,1c2.634-2.433,1.992-1.5,6-1-1.41,4.207-2.677,4.112-5,7l16,1v4l-13,20c14.637-4.126,15.515-19.584,28-24q0.5,1,1,2c-3.891,7.434-9.8,11.176-11,21l2,2c14.5-8.186,16.324-26.332,36-29,1.945,2.648,2.251,2.444,3,7l-5,6h-1v-1l4-9h-4l-16,16c-0.092,5.938.184,7.309,3,10,16.4-4.778,27.334-34.47,45-27v4c-5.392,6.383-20.258,14.315-23,19l1,1,2,3c13.029-2.245,28.13-14.989,35-24l-1-1-12,9,7-9,5-3h5Zm-96-56c-23.135,13.583-47.487,23.118-63,44,27.39,9.191,72.6-10.588,76-40l-3-4H794Zm-92,42-5,2,2,3c5.213,2.01,6.93,3.287,12,1q1-2,2-4v-1Zm122,1,4,2v1l-7,7-2-1q0.5-2,1-4Zm77,0,16,6,7-5-4,6c-13.185,3.081-18.24-5.264-30,2l3-5Zm-182,2-4,5v1h4l4-4v-1Zm7,2-2,3v1h8v-2Zm13,9-23,1-38,42c23.215,7.347,85.434,29.01,100-2C789.287,509.6,756.527,487.654,739,488Zm-32,1-34,39,2,2,6-5,31-35v-1h-5Zm160,0c-7.061,4.42-16.361,10.5-17,18h1a110.484,110.484,0,0,0,17-13Q867.5,491.5,867,489Zm64,1c-5.727,5.477-8.725,9.724-12,18q0.5,2,1,4h1l6-4,7-16Zm-15,14q-1,5-2,10l2,2h1Q916.5,510,916,504ZM671,530l-16,23,18-20Z" transform="translate(-34 -237)"/>
</svg>
