<svg id="Layer_1" data-name="Layer 1" xmlns="http://www.w3.org/2000/svg" viewBox="0 0 457.71 370.66"><defs><style>.cls-1{fill:#fff;}</style></defs><title>logo</title><path class="cls-1" d="M288.94,444.62l1.18-.82a7,7,0,0,1-1.25-2.34c-.07-.78.52-1.64.89-2.65l-1.76-2.5c1.43-2.5,1.43-2.5,1.2-4.25h-1.69l1.7-1.71c-1.67-.87-2-2.14-1.39-4a7.78,7.78,0,0,0-.08-2.48l.8-.67c-1.39-.16.1-1.89-1.09-2.2-.07,0-.13-.37-.12-.57,0-1.14.32-2.28-.22-3.41-.11-.22.22-.72.39-1.19l1.35.48c-.43-.92-1-1.65-.62-2.73.07-.21-.17-.66-.37-.86-.85-.83-.72-1.77-.45-2.86.47-1.84.81-3.72,1.21-5.61l-.67-.1.06.07c-.18-.67-.35-1.34-.53-2,0-.14-.15-.24-.18-.37-.16-.81,1.25-1.4.12-2.51-.45-.44-.23-1.86-.21-2.83s.21-1.94.25-2.91c.09-2.43,0-4.87.23-7.29.37-4.8.11-9.65.91-14.43.33-2,.22-4.06.48-6.06a33.65,33.65,0,0,1,1.08-4.67c.4-1.41,1.33-2.27,2.16-2.21a2.8,2.8,0,0,1,2.53,2.48,7.21,7.21,0,0,1,.11,2.22c-.6,5.14-1.45,10.26-1.84,15.42-.49,6.63-1,13.28-.86,20,.05,3-.24,6-.29,9,0,2.24.08,4.48.11,6.72,0,2.06,0,4.13.05,6.19s.15,4.33.21,6.49c0,1.67,0,3.34.08,5,.06,1.89.19,3.78.24,5.67.07,2.29.06,4.59.13,6.88,0,.82.22,1.65.26,2.48.14,2.68.18,5.37.36,8.05.19,2.89.53,5.77.74,8.66.08,1.11-.09,2.24,0,3.35.15,2.3.42,4.58.58,6.87.11,1.66.13,3.33.2,5a3,3,0,0,0,.12.8c.35,1.08.36,1.08,0,2l1.18,1.81,1.19-.21-.71-1.2,2.31-.52c-.36-4.11-.71-8.13-1.08-12.27-.7.06-1.49.42-1.56-.74,0-.43.26-.56,1.43-.62l-.28-2.37c-.41.68-.59,1-.87,1.44-1.55-2.28,0-4.64-.44-6.93l-.38,1.62a1.15,1.15,0,0,1-.49-1.65,4.05,4.05,0,0,0-.25-3.9,4.49,4.49,0,0,1-.07-2.41c.15-1.37.52-2.73-.23-4,.69-1.27-1.05-2.81.35-4,.15-.14.12-.66.08-1s-.26-.92-.27-1.39a4.37,4.37,0,0,1,.25-1.12c-1.5-2-1.27-4.07-.79-6.31.3-1.36.81-2.87,0-4.24a1.12,1.12,0,0,1,.1-1.47c.21-.28.43-.91.32-1.06-1-1.32-.27-2.93-.58-4.36a5.58,5.58,0,0,1,.38-1.89,3.1,3.1,0,0,1-.12-3.3,2.91,2.91,0,0,0,0-2.86,2.55,2.55,0,0,1,.34-3c.75-.75.64-1.12-.25-3,1.05-1.14.61-2.51.33-4.06l1.72-.25c0-.06,0-.17,0-.19-1.3-1.07-1.18-2.61-1.06-4.17.16-2.35.29-4.71.43-7.07,0-.21.11-.46,0-.62-.67-1.73-.26-3.29.3-5a43.56,43.56,0,0,0,1-4.9,2.23,2.23,0,0,1-.59-.81,4.18,4.18,0,0,1-.21-1.72c.13-1.05.73-2.19.52-3.11a12.07,12.07,0,0,1,0-3.5,17.6,17.6,0,0,1,.37-2.27,7.32,7.32,0,0,0,.31-1.43c0-4.29.92-8.42,1.44-12.62.22-1.71-.33-2.12-1.75-1.89a19.66,19.66,0,0,1-4.13,0c-.9,0-1.8-.26-2.7-.26-.72,0-1.43.19-2-.55a.79.79,0,0,0-.84-.17c-1,.77-2,.18-2.91,0-2.67-.52-5.32-1.4-8-1.54-2.3-.13-4.53-.71-6.82-.77a40.77,40.77,0,0,1-4.5-.59c-.36,0-.72-.11-1.09-.15l-13.75-1.35a40.08,40.08,0,0,1-4.52-.52,2.4,2.4,0,0,0-2.58,1c-1.1,1.31-2.18,2.64-3.34,3.88a54.07,54.07,0,0,1-14.86,10.86,85.94,85.94,0,0,1-8.74,4.15c-2.92,1.13-6,1.83-9,2.7-.69.21-1.39.33-2.38.56a7.08,7.08,0,0,0,.78,1.55c2.11,2.22,4.15,4.55,6.42,6.52a22.28,22.28,0,0,0,4.73,2.62c1.06.53,2.19.87,3.22,1.44a1.82,1.82,0,0,1,.76,1.26c.06.67-.41,1.05-1,1.26a3.12,3.12,0,0,1-2.94-.23,30.26,30.26,0,0,0-4.21-1.95c-2.12-.86-3.7-2.61-5.4-4.19-2.5-2.33-5-4.61-7.54-6.93-1.61-1.5-3.61-1.63-5.5-1.89-4.11-.57-7.42-3-10.54-5.8a8,8,0,0,1-2.1-3.62c-.78-2.84.2-4,2.35-3.62a15.38,15.38,0,0,1,5,1.71,77.49,77.49,0,0,1,7.71,5.18,6.41,6.41,0,0,0,4.24,1.52,36.76,36.76,0,0,0,11.11-1.86c1.43-.52,2.94-.74,4.34-1.35,1.62-.71,3.15-1.7,4.72-2.55.57-.3,1.07-1,1.83-.46.12.08.46-.14.62-.32a5.73,5.73,0,0,1,4.05-2.43c.32,0,.7-.47.92-.84a4,4,0,0,1,2.73-2.2,1.48,1.48,0,0,0,.77-.46c1.55-1.56,3.09-3.16,4.63-4.74a7.45,7.45,0,0,0,.52-.6c.69-1,.55-1.6-.54-2-1.33-.5-2.67-.94-4-1.4a10,10,0,0,1-4.28-3.07,3,3,0,0,1-.62-.77c-1-2.41-.92-3.18,1.24-3.86,1.83-.57,3.53.08,5.16.68a60,60,0,0,1,5.64,2.89,14.2,14.2,0,0,0,3.72,1.59c4.26.71,8.54,1.18,12.81,1.77,3.24.45,6.49.89,9.72,1.42,1.42.23,2.89,0,4.26.83.4.23,1-.21,1.57-.14q2.77.39,5.54.93a30.62,30.62,0,0,1,6,1.43c1.5.61,3.24.41,4.81.88,2.67.81,5.43.87,8.12,1.56a10.49,10.49,0,0,0,3.21-.26,9.79,9.79,0,0,0,.54-1.89c.28-3.21,1.6-6,2.61-8.92.41-1.18,1-2.24,2.24-2.45.67-.11.86-.84,1-1.58.56-2.51,1.09-5,1.84-7.47.43-1.42,1-2.87,2.5-3.42,1.19-.45,3.74,1.11,3.92,2.52a2.22,2.22,0,0,1-.24,1.19c-2.5,4.52-3,9.76-3.92,14.82-1,5.7-1.82,11.45-2.53,17.21-.66,5.33-1.12,10.71-1.56,16.07-.37,4.45-.66,8.91-.84,13.37s-.16,9.09-.23,13.63c0,2.07-.08,4.14-.06,6.21,0,1,.13,1.95.22,2.93a6.68,6.68,0,0,1,.15,1.45c-.51,3.64.36,7.23.31,10.86s.21,7.44.46,11.15.67,7.49,1,11.23c.12,1.4.19,2.8.3,4.19.27,3.34.48,6.7.83,10,.27,2.45.73,4.88,1.16,7.64l8.51-5.79c-.6-2.75,1.45-4.45,1.71-7l1.26.33a.85.85,0,0,0,.12-.36,4.83,4.83,0,0,1,.72-2.75,3.09,3.09,0,0,0,.34-3.31.9.9,0,0,1,.54-1.42c.72-.24.95-.88.65-1.8a3.44,3.44,0,0,1,0-1.56c.13-.67.48-1.3.54-2,.11-1.2.52-1.81,1.69-1.37.26-2.49-.56-5.15,1.4-6.8.08-1.13.1-2.16.26-3.17.11-.74.29-1.42,1.16-1.64.55-.14,1-.72.41-1.61s-.52-1.53.34-1.95c1.05-.51,1.26-1.12.75-2.26a1,1,0,0,1,.43-1.38c.7-.53,1.33-1.21.44-2.3a1.77,1.77,0,0,1,0-1.3,4.08,4.08,0,0,1,.71-1,7.5,7.5,0,0,1-.07-2c.45-1.82,1-3.59,1.54-5.38.07-.27.17-.72.29-.74,1.55-.19,1.09-1.87,1.57-2.83a1.16,1.16,0,0,0,0-1c-1.22-1.23-.13-2.19.35-3.05.2-.37.55-.61.54-1.14,0-1.75.25-3.35,1.6-4.45.14-.12.11-.51.18-.93l-.92.46c-.31-.71-.28-1.08.44-1.4,1.1-.49,1.1-.82.28-1.75l1.28-7.85c.41-2.54.77-5.1,1.26-7.63.78-4,1.88-7.94,2.35-12.05.14-1.22.7-2.37.94-3.59.2-1,.14-2.06.31-3.07.46-2.69,1-5.37,1.48-8.07.25-1.43.37-2.88.57-4.32.23-1.66.52-3.3.69-5,.23-2.3.37-4.61.56-6.92.17-2.09.36-4.18.54-6.26.24-2.72.49-5.44.7-8.16a23.72,23.72,0,0,0,0-2.53c0-.33-.15-.92-.27-.93a8.14,8.14,0,0,0-2.91,0c-.61.17-.94,1-.43,2l-2.18.65a4.68,4.68,0,0,1,.3-1.42c2.21-3.14,3.58-6.83,5.12-10.4a9,9,0,0,0,.5-2.23c.36-2.51,1.27-3.31,3.37-2.87s2.95,1.36,2.82,4c-.24,4.69-.62,9.37-1,14.05q-.22,3.24-.52,6.48c-.1,1.12-.28,2.22-.42,3.33-.29,2.26-.55,4.53-.87,6.79-.11.74-.39,1.45-.57,2.18-.11.47-.38,1.05-.25,1.41.63,1.64-.4,3.13-.21,4.74.08.6-.47,1.26-.55,1.92-.23,2-.91,3.79-.71,5.88.1,1-.85,2.17-1.45,3.54l.75,2.14c-.68,2.68-1.75,5.13-1.78,7.59a26.4,26.4,0,0,1-1.09,6.11c-1.06,4.43-1.71,9-2.52,13.5-.21,1.16-.37,2.32-.59,3.47-.14.72-.38,1.42-.51,2.14-.18,1-.73,1.92-.26,3a1.16,1.16,0,0,1-.14,1,2.91,2.91,0,0,0-1,3.06.74.74,0,0,1-.12.39c-1.71,3-1.45,6.6-2.49,9.79-.32,1-.47,2-.84,2.93-.18.44-.7.69-1.13,1.09a4.07,4.07,0,0,1,.1,3.38,1.1,1.1,0,0,0,0,.73,1.16,1.16,0,0,1-.19,1.48,5.44,5.44,0,0,0-.66,1.42c-.4,1.17-.46,2.41-1.31,3.49-.61.78-.48,2.33-.69,3.54a13.72,13.72,0,0,1-.35,1.57c-.27.92-.61,1.8-.84,2.72a7.44,7.44,0,0,1-1.49,3.54,1.56,1.56,0,0,0-.42.86,32.21,32.21,0,0,1-2.42,9.35c-.26.68-.12,1.61-.46,2.21-.8,1.45-.8,3.29-1.58,4.62-1,1.69-1.08,3.69-1.8,5.45-.22.54.13,1.39.23,2.17,1.63-.42.65-1.56.7-2.47l2.31-1.13c-.6,1.59-1,2.7-1.48,3.94.24,0,.6.06.73-.1a17.09,17.09,0,0,1,2.09-2.7,1.85,1.85,0,0,0,.48-2.8c1.92-1.27,3.43-3.14,5.79-3.44.3-.36.68-1.21,1.21-1.36s.71-1.79,1.73-1c.07.06.35-.12.46-.27a7.53,7.53,0,0,1,3.2-2.38l-.46,1.69c1.13.42,1.42-.89,2.14-1.28-.28-.3-.68-.54-.77-.89s.31-.7.58-.88c2.41-1.6,4.88-3.07,7.25-4.76.78-.56,1.46-1.13,2.08-.95a22.73,22.73,0,0,1,2.45-2.46c2.16-1.54,4.37-3,6.59-4.41,2-1.28,4-2.45,6-3.72,1.75-1.11,3.46-2.33,5.2-3.46a4.35,4.35,0,0,1,4.05-.37,3.56,3.56,0,0,1,1.47,5,3,3,0,0,1-.86.74A196.41,196.41,0,0,0,361,448.13L357.61,451a7,7,0,0,0,3.66.13c1.54-.34,3.06-.78,4.6-1.16a92.56,92.56,0,0,1,10.52-2.28c3.48-.43,6.92-1.32,10.38-1.95,3.88-.72,7.8-1.22,11.65-2.1a82.59,82.59,0,0,0,9.12-2.8c5.14-1.85,9.8-4.87,14.36-8.11,1.65-1.16,3.33-2.27,5-3.46.64-.46,1.69.11,2-1.1,1,.09,1.36-1,2-1.56s1.62-1.15,2.39-1.79,1.6-1.47,2.4-2.21c.11,0,.25,0,.34,0,1.1.8,1.26.75,1.53-.52.3-1.5.3-1.49,1.6-.9.24.1.66.17.8,0,.69-.74,1.71-1.47,1.85-2.37.24-1.44.94-1.56,1.78-1.49a4.77,4.77,0,0,0,2.69-.79c1.18-.61,1.77-1.33,1.13-3.26l1.77,1c1.57-.43,2.06-3.58,4.3-2.5.15-.37.35-1.08.44-1.06,1.53.31,2-1.54,3.13-2,.33-.14.6-.56.93-.62,1.95-.35,3.39-1.82,5-2.91.14-.1.34-.38.39-.34,1.25.82,1.79-.48,2.62-1.06,2.69-1.85,5-4.39,7.86-5.9a3.12,3.12,0,0,1,1.07-.17l.17.4a9.19,9.19,0,0,1-.92,1.11,45,45,0,0,0-4.28,3.52,47.05,47.05,0,0,1-6.3,5.16,14.24,14.24,0,0,1-2.21,1.33c-1.85.92-3.12,2.77-4.79,4-.41.28-.83.54-1.24.81a7.35,7.35,0,0,0-2.13,1.47c-1.37,1.9-3.2,3.06-4.91,4.41-1.88,1.49-3.86,2.82-5.76,4.28-3.28,2.53-6.44,5.27-9.81,7.62-5.75,4-11.38,8.34-17.55,11.5a54.9,54.9,0,0,1-15.12,5.21c-6.45,1.19-12.93,2.29-19.39,3.48a163.29,163.29,0,0,0-20.58,5.23A93.75,93.75,0,0,1,350,459.86a6.94,6.94,0,0,1-5.79-1.15c-.69-.52-.85-2-1.92-1.64a11.08,11.08,0,0,0-2,1.39c-1.42.93-2.91,1.72-4.26,2.77-2.05,1.6-4.4,2.57-6.35,4.39a21.38,21.38,0,0,1-4.22,2.87c-3,1.66-5.49,3.69-6.13,7.86a10,10,0,0,1-1.38,3.56c-1,1.61-.76,3.88-2.26,5.15.07,1.25-.59,2.14-1,3.19-1.21,2.87-2.05,5.93-3.2,8.83-.93,2.33-2.06,4.57-3.18,6.8-.25.49-.82.77-1.31,1.2a7.15,7.15,0,0,1-1.29,4.8,30.48,30.48,0,0,0-1.86,4.53c-.25.61-.59,1.17-1,1.89l-1.29-1.24-.53,1.26c1.26.67,1.13.62.76,1.9-.72,2.52-2.3,4.34-3.61,6.38-.23.36-.12,1-.28,1.42s-.5,1-.73,1.44c-.43.9-.86,1.8-1.27,2.71a15,15,0,0,0-.92,2.2,6.52,6.52,0,0,1-1.73,2.88c-.14.12-.35.26-.37.42-.26,1.79-1.63,2.84-2.16,4.44-.07.21,0,.47-.1.67-.26.74-.37,1.74-.84,2.14-2,1.71-2.64,4.61-4.34,6.57-.14.16-.07.55-.14.81a3.91,3.91,0,0,1-1.34,2.54c-.56.4-.78,1.44-1.16,2.19-.71,1.39-1.46,2.74-2.13,4.15a7.43,7.43,0,0,0-.31,1.7c-1.64.55-1.49,2.55-1.87,4.16-1.64.17-2.37,1.32-2.24,3.22a2.33,2.33,0,0,1-.46,1.43c-.6.75-1.4,1.29-2,2.07a3.66,3.66,0,0,0-.74,2,4.33,4.33,0,0,1-.93,2.37c-.81,1.51-2.29,2.24-3,3.94a34.67,34.67,0,0,1-2.6,4.49,1.7,1.7,0,0,0-.24.77c-.1,2.35-.21,2.58-1.81,3.65a2.23,2.23,0,0,0-.62.73c-1.11,2-2.22,3.92-3.28,5.93a25.6,25.6,0,0,0-1.08,2.64,4.45,4.45,0,0,1-.25.78c-2.12,3-3.67,6.46-5.9,9.37a9.52,9.52,0,0,0-.74,1.19c-1.15,2-2.26,4-3.45,5.89-.28.45-.85.67-1.4,1.07.12.6.56,1.47-.47,1.92-.2.09-.25.6-.41.89a7.46,7.46,0,0,1-2.25,2.94,7.8,7.8,0,0,0-1.64,2.19c-2.45,3.64-4.87,7.32-7.37,10.93a3.8,3.8,0,0,1-1.69,1.14c-1.29.53-1.65.32-2.47-1.08a8.05,8.05,0,0,0-.51-.7,4.82,4.82,0,0,1,1.64-3c1.57-1.52,3.23-3,4.14-5.21a1,1,0,0,1,.19-.36c1.88-1.67,2.79-4.22,4.22-6.3,2.09-3,3.67-6.52,5.77-9.53,1-1.35,1.46-3.28,3.19-4a3.84,3.84,0,0,0,1.23-2c.66-3.06,2.49-5.27,3.81-7.84.23-.46.49-.89.72-1.36s.39-.87.57-1.31a8.56,8.56,0,0,1,2.88-3.27c-.23-1.86.87-3.11,1.57-4.53s1.45-2.76,2.25-4.08c.5-.84.81-1.9,1.89-2.14a1.42,1.42,0,0,0,.5-1.18,2.34,2.34,0,0,1,.43-1.94c2.57-4.66,5.17-9.3,7.72-14,1.64-3,3.18-6.09,4.78-9.12,1-1.92,2.1-3.79,3.1-5.71,1.12-2.15,2.2-4.31,3.23-6.51a3,3,0,0,1,3-2.08c0-.72-.08-1.44-.11-2.16,0-.46-.11-1.28,0-1.33,1.34-.56.83-2.58,2-3.23.2-2.18,1.88-3.26,2.75-4.94.14-.28.47-.53.47-.79,0-2.39,1.67-3.89,2.17-6.51l.6,1.33a11.61,11.61,0,0,0,1-2.13c.27-1,1.28-1.85.74-3.21-.12-.28.3-.86.5-1.29a24.73,24.73,0,0,0,1.09-2.41,1.42,1.42,0,0,1,1.7-1.11,23.17,23.17,0,0,1,.36-3.5,24.6,24.6,0,0,1,1.33-3.29l.46.06c.18.68.36,1.36.62,2.4a18.21,18.21,0,0,0,.69-2,11.86,11.86,0,0,0,.09-1.88l.76-.71c-1-.92-.6-1.74.2-2.58l1,.7.49-2-1.6,1.19c-.27-1.65,1.11-1.55,1.61-2.53,0-.53-1.07-1.16-.22-2,.52-.49,1-1,1.6-1.63a2.61,2.61,0,0,1,.51-3,6,6,0,0,0,.63-2l1.19.61c.06-.15.08-.22.11-.28.5-1.05-1.14-1.26-.66-2.56.28-.76-.28-2-.54-2.95s-.59-1.79-1-2.9L306.3,482c-.43.27-.83.78-1.25.79a3.53,3.53,0,0,0-2.48,1.58c-.47.54-1,1-1.53,1.51.17.46.55,1,.46,1.28-.67,2.49.51,4.78.49,7.2a26.41,26.41,0,0,0,.32,3.12c-1,.09-1-.66-1.14-1.21-.55-3.14-1.06-6.29-1.63-9.69-1,.62-1.87,1.22-2.78,1.7-1.11.58-1.27,1.53-1,2.76a12.55,12.55,0,0,1,.13,1.48c-1.84.1-.75-1.7-1.43-2.56l-7.14,5.2a107,107,0,0,1,2.52,16c-.24-.21-.64-.37-.7-.63q-1.15-5.21-2.2-10.42c-.26-1.28-.42-2.59-.63-3.88-.78-.55-1.24,0-1.75.54a5.46,5.46,0,0,1-3.24,2.09,26.43,26.43,0,0,0,.21,2.67,55.44,55.44,0,0,1,.62,6.45,34.26,34.26,0,0,0,1.91,10,61.51,61.51,0,0,1,1.76,7.29l-.6.47c-.07-.27-.12-.56-.2-.83-.62-2-1.26-4.06-1.87-6.09S282,515,281.46,513c-.81-3.14-1.51-6.32-2.3-9.47a18.07,18.07,0,0,0-1-2.34c-.66.51-1.09.88-1.55,1.17-.68.43-1.39.81-2.08,1.21a8.25,8.25,0,0,0-.94.59,30,30,0,0,1-2.48,2.08c-.78.52-1.7.76-2.52,1.2a9.23,9.23,0,0,0-1,.9c-.94.74-1.93,1.42-2.86,2.19-1.92,1.58-4.18,2.47-6.12,3.93s-3.93,2.48-5.71,3.93c-3.43,2.78-7.48,4.25-10.77,7.24a4.86,4.86,0,0,1-1.25.83,26.83,26.83,0,0,0-4.76,3c-2.16,1.55-4.4,3-6.64,4.33-1.17.72-2.44,1.19-3.61,1.89-2.62,1.57-5.13,3.41-7.83,4.75a39.63,39.63,0,0,0-6.26,3.61,41.07,41.07,0,0,1-5.45,2.88c-1.1.58-2.16,1.25-3.26,1.82-3.83,2-7.65,3.89-11.49,5.81-2.38,1.2-4.77,2.4-7.19,3.5-1.34.6-2.77,1-4.15,1.47-2.49.91-5,1.91-7.45,2.76-6.17,2.09-12.36,4.12-18.54,6.16A11.74,11.74,0,0,1,152,569a1.52,1.52,0,0,1-1.81-1.29c-.74-2.45-.52-3.05,1.72-3.72,5.4-1.63,10.78-3.35,16.21-4.84a85.31,85.31,0,0,0,14.23-5.72c3.41-1.65,6.78-3.45,10.24-4.93,1.94-.82,3.78-1.87,5.69-2.71,2.89-1.27,5.45-3.25,8.25-4.69a.71.71,0,0,1,.34-.14c2.17.27,3.31-1.87,5-2.82s3.62-1.95,5.41-3,3.43-2.11,5.13-3.19c2.23-1.41,4.44-2.86,6.67-4.26a6.64,6.64,0,0,1,1.52-.67,6.78,6.78,0,0,0,3.56-2.21,6.32,6.32,0,0,1,3.71-2.44c1.26-.1,1.69-.92,2.45-1.56,1.22-1,2.51-1.92,3.76-2.89.88-.69,1.56-.52,2,.67l1.91-1.24c-.48-.75-.33-1.45.38-1.75a7.22,7.22,0,0,1,1.91-.23c1.54-2.69,4.14-4,6.82-5.11a1.22,1.22,0,0,0,.57-.43c1-1.7,2.64-2.38,4.2-3.15a5.81,5.81,0,0,0,.81-.62c1.26-.93,2.51-1.9,3.8-2.76.22-.14.66.18,1,.27,1-2.15,2.93-2.78,4.54-3.93s3.17-2.47,4.9-3.83c-1.61-1-1.74-2.57-1.56-4.3a2.56,2.56,0,0,0-.54-1.89,3.88,3.88,0,0,1-.69-3.28,6,6,0,0,0-.43-3.24c-.83-2.14-1.65-4.21-1.29-6.65a2.43,2.43,0,0,0-.19-1,12.31,12.31,0,0,1-.75-2.47c-.12-1.54,0-3.09-.8-4.48-.13-.23,0-.65,0-1a5.31,5.31,0,0,0,.11-1.23c-.4-2-.85-3.9-1.29-5.85-.08-.34-.25-.65-.31-1a21,21,0,0,1-.67-4.72c.15-2-1.05-3.59-.6-5.53.66-2.79-1.28-5.13-1.05-7.85,0-.53,0-1.07,0-1.6a7.17,7.17,0,0,0,0-1.67c-.87-3.44-.89-7-1.11-10.52a10.11,10.11,0,0,0-.26-2.07c-.34-1.33-.88-2.63-.06-4a1.3,1.3,0,0,0,0-.82,24,24,0,0,1-.69-4.15,32.53,32.53,0,0,1-.21-6.23c0-.21.12-.43.08-.61-.75-3.31-.13-6.68-.25-10-.08-2.3,0-4.62.08-6.92.11-4.28.3-8.56.36-12.85a20.58,20.58,0,0,1,2-7.78c.25-.58,1.13-.8,1.67-1.16a4.8,4.8,0,0,1,1.79,3.39,24.8,24.8,0,0,1,.74,6.43c-.3,3.21-.61,6.42-.9,9.63-.09,1-.13,2.09-.21,3.14-.69,8.62-.45,17.27-.29,25.9.07,4.18.68,8.36,1.09,12.53.35,3.65,1,7.29,1.07,10.95.14,4.32,1,8.5,1.52,12.72.86,6.65,2,13.24,3.15,19.83.92,5.36,2,10.68,3,16,.12.61.31,1.2.51,1.94a12.32,12.32,0,0,0,5.21-3.25,1.28,1.28,0,0,0,.25-1c-.42-2.39-.88-4.78-1.33-7.17l-1.1.25c-.22-.95-.48-1.86-.65-2.8-.06-.31,0-.89.16-1,1.77-.94.63-2.48.73-3.87h-1.23c-.07-.88-.74-1.64-.06-2.72l.92.71v-2.51l-1.17.56c-.38-1.1-.72-2.12-1.06-3.13.5-.94,1-.79,1.52.06.24-.83.29-1.5-.58-1.66s-1.07-1-1-1.72a6.62,6.62,0,0,0-.7-4,2.34,2.34,0,0,1,0-1.15c.12-1.45.32-2.9-.56-4.2a1.84,1.84,0,0,1-.22-1.16,11.88,11.88,0,0,0-.48-6.73,2.3,2.3,0,0,1,.06-1.21,19.49,19.49,0,0,1,.74-3.21c.63-1.61-.16-3-.39-4.41-.15-.92-.52-1.8-.73-2.71-.26-1.12-.49-2.24-.66-3.38a5.14,5.14,0,0,1,.07-1.66,12.65,12.65,0,0,1,.64-2.38,1.6,1.6,0,0,0-.25-1.71,3.64,3.64,0,0,1-.37-3.26c.91-1.86,0-3.38-.15-5-.09-1.18-.27-2.36-.36-3.55s-.11-2.55,1-3.41a5,5,0,0,0-.43-1.23c-.62-.88-.85-1.64,0-2.52a1.65,1.65,0,0,0,.22-1.33c-.93-2.57-.54-5.27-.56-7.9,0-2.87.11-5.76.35-8.62s.71-5.68,1.1-8.52a5,5,0,0,1,.37-1l1,.21.77-2.68a5.54,5.54,0,0,1,.69,1.1c1.34,4.56,1.36,9.26,1.16,14-.39,9.69-1,19.37-.75,29.07.15,6.66.25,13.32.57,20,.2,4,.84,8.06,1.2,12.09.27,3.07.88,6.22.51,9.2-.45,3.6.41,6.87.79,10.27.53,4.86,1.19,9.7,1.81,14.55a5.31,5.31,0,0,0,.35,1l5.48-3.85a2.12,2.12,0,0,0,.95-2.25c-.63-4.55-1.12-9.13-1.4-13.74a32.65,32.65,0,0,1-.31-5.85,1.28,1.28,0,0,0-.08-.62c-1.09-2.37-.59-4.93-.69-7.42,0-1-.19-1.95-.31-2.92-.18-1.49-.37-3-.55-4.44L289,449.17a6.38,6.38,0,0,1-.05-4.59Zm13,3.53a1.49,1.49,0,0,1,1-2.16c-.3-.71-.77-1.28-.71-1.78s.62-1,.82-1.29l-1.55-3.15a6.92,6.92,0,0,0,.88.05c.78-.08,1.46-1.43.86-1.9l-.68,1.09-1.67-.69c.17-.73-.38-1.68.66-2,.13,0,.29-.47.28-.71-.12-2.59.25-5.29-1.31-7.73h1.55a3.3,3.3,0,0,0-.71-2.88,9.29,9.29,0,0,1-1.08-2.57c.11-.81.29-1.69.34-2.58.09-1.38.08-2.76.14-4.14.07-1.53.75-3.09,0-4.59-1-2,.33-3.55.6-5.73l1,1.82c.13-1,.22-1.52.26-2.06a8.89,8.89,0,0,0-.06-1c-1.84,0-2-.14-2.12-2.16,0-.49-.11-1-.24-1.94-.27,2.29-.6,4.09-.68,5.89-.23,5.26-.38,10.53-.52,15.79-.06,2.38-.12,4.77,0,7.14s-.3,4.68-.12,7.08c.32,4.1.25,8.23.34,12.35,0,2.44-.08,4.9.18,7.31a101.15,101.15,0,0,1,.51,12.67,6.78,6.78,0,0,0,0,.78c.14,1.66.31,3.32.42,5s.17,3.51.26,5.27c1.66-.37,2.74-2.21,4.52-2.44-.07.87,0,1.87-.21,2-1.17.64-.51,1.7-.49,2.63.25-1.26,1.53-2,1.18-3.59a2.23,2.23,0,0,1,.91-2.51c.34-.23.8-.71.79-1-.08-1.81-.25-3.62-.48-5.41a1.16,1.16,0,0,0-.74-.77c-.81-.18-.95-.91-.93-1.57a8.25,8.25,0,0,0-.88-3.79c-.17-.38-.25-1.18-.06-1.35,1.32-1.23.39-2.54,0-3.59a7.29,7.29,0,0,1-.58-3.65,1.92,1.92,0,0,0,0-1,4.42,4.42,0,0,1-.4-3.58C303.34,448.76,303,448,301.94,448.15Zm12.79,28.25a8.64,8.64,0,0,0-1.29.54c-.67.44-1.32.95-2,1.41-1.24.84-1.34,1-1.05,2.62.34,1.84.72,3.67,1.1,5.5a2.86,2.86,0,0,0,.36.69c.76-.55.44-1.25.35-1.92-.37-2.81,0-5.32,2.14-7.17C314.62,477.84,314.57,477.12,314.73,476.4ZM301,391.55a8.84,8.84,0,0,0-.19,5.83c.75-1.4,1.65-2.72.32-4.34C301,392.81,301.08,392.25,301,391.55Zm-8.72,142.27c1.36-.38,1.65-.84,1.54-2.46Zm22.1-48.47a3.18,3.18,0,0,0-1.17,2.48C314.48,487.5,314.33,486.38,314.41,485.35Zm4.39-10.73c-1.22,0-1.22,0-.93,1.84C318.21,475.77,318.49,475.23,318.8,474.62ZM338,411c-1.13-.87-1.13-.87-1.43.53Zm-25.69,81,.48-2.11-.36-.11C312.14,490.4,311.48,490.94,312.29,491.93Zm30-101.72-1.21.21.25,1.45Zm-10.21,68.73c1.2.57,1.41-.18,1.63-1Zm-22.91,39.67-.38-.1-.39,1.56.45.13C308.92,499.67,309,499.14,309.14,498.61Zm-12.63-12.34.14.55,1.05-.49-.1-.32Z" transform="translate(-50.09 -266.23)"/><path class="cls-1" d="M165.87,283.71a4.19,4.19,0,0,0-.34-1,59,59,0,0,0-4.16-6,13.54,13.54,0,0,0-3.84-2.74,14,14,0,0,0-10.27-1.56c-2.64.62-4.66,2.29-6.57,4.29a32.49,32.49,0,0,0-6.21,10.07,128,128,0,0,0-4.4,12.24c-1.21,4-2.11,8.19-3,12.35-.64,3.1-.94,6.3-1.49,9.44-.49,2.79-1.23,5.53-1.62,8.33s-.46,5.62-.74,8.42c-.15,1.45-.51,2.87-.65,4.33-.17,1.89-.15,3.81-.33,5.7-.19,2.05-.51,4.09-.78,6.14-.08.62-.2,1.24-.23,1.86-.17,3.29-.37,6.58-.45,9.88,0,1.84.23,3.69.19,5.53,0,1.36-.47,2.71-.51,4.07-.05,2,.11,4.05.11,6.08,0,1.6-.1,3.19-.18,4.79-.12,2.41-.3,4.82-.36,7.23a20.34,20.34,0,0,0,.33,2.66,8,8,0,0,1,.08,1.46,53.71,53.71,0,0,0-.16,8.7c.17,1.84-.17,3.73-.12,5.6.1,3.35.33,6.7.48,10.06,0,.89-.13,1.79-.06,2.67.11,1.54.34,3.07.51,4.6l.41.08c.35-.54.72-1.06,1-1.62a8.35,8.35,0,0,1,.86-1.6,57.36,57.36,0,0,0,5.49-6.94c.8-1.13,1.58-2.27,2.34-3.44,1.23-1.9,2.43-3.83,3.65-5.74.14-.23.37-.4.46-.65.76-2,1.92-3.54,4-3.95l-.61-2.19.29-.22,1.09,1c.15-.2.28-.31.28-.4,0-.56-.13-1.11-.15-1.67a6.48,6.48,0,0,1,.1-1.24c.17-1,1.59-1,1.49-2.36-.08-1.14.69-1.84,1.27-2.67,1.16-1.68,2.18-3.49,3.28-5.24.56-.91,1.18-1.76,1.71-2.69a11.1,11.1,0,0,0,1-2.17,14.93,14.93,0,0,1,1.65-3.61,29.16,29.16,0,0,0,2-4.59c.74-1.84,1.34-3.78,2.2-5.54,2.26-4.62,3.46-9.81,5.75-14.38a34.22,34.22,0,0,0,1.62-5.26c.27-.83.37-1.66,1.45-1.43-.22-.68-.58-1.22-.48-1.62s.63-.69,1.07-1.12a11.38,11.38,0,0,1,1.79-7.57c.87-1.44.67-3.06,1.14-4.52.1-.32,0-.82.13-1,1-1.09.78-2.42.79-3.79,0-1.06-.12-2.29.75-3.14a1,1,0,0,0,.16-.59,31.63,31.63,0,0,1,.95-8.06,25.85,25.85,0,0,0,.38-4.59,11.78,11.78,0,0,0-.43-2.22c.81-1,.81-1.05-.13-2.93,1.52-.66.43-2.59,1.34-3.78,1,.72.47,2,.84,2.82a2.9,2.9,0,0,1-.14,2.78,1.35,1.35,0,0,0,0,1.86.83.83,0,0,1,.25.53c0,1.25,0,2.5-.12,3.73-.31,2.92-.58,5.84-1.06,8.72-.64,3.86-1.46,7.67-2.2,11.5-.23,1.16-.42,2.33-.69,3.48s-.59,2.11-.9,3.15c-.66,2.24-1.67,4.43-1.91,6.73s-1.51,3.59-2,5.51c-.65,2.37-1.66,4.61-1.85,7.14a29.06,29.06,0,0,1-2.09,4.36A32.48,32.48,0,0,0,157.5,372a71.8,71.8,0,0,1-3.86,9.56c-.65,1.34-2,2.27-1.92,4.09,0,.07,0,.18,0,.2-2.21,1.2-1.72,4-2.7,6a4.37,4.37,0,0,1-.21.58,59.58,59.58,0,0,0-3.86,7.24c-1,2-2.43,3.68-3.35,5.77a5.13,5.13,0,0,1-1.38,1.63c-1.5,1.34-1.73,3.6-2.86,5.2-.49.69-.75,1.53-1.58,1.93-.48.23-.82,1-1.12,1.57a24.88,24.88,0,0,1-3.76,5.71,37.82,37.82,0,0,0-2.25,3.28c-2,2.68-4.1,5.3-6.14,8a5.65,5.65,0,0,0-1.34,4.94,42.76,42.76,0,0,1,.38,5.23c.24,3.26.53,6.52.78,9.78.16,2,.31,4,.43,6.06.23,4,.29,7.93.68,11.87.34,3.38.78,6.76,1.09,10.16.35,3.95.69,7.9,1.15,11.83.6,5.2,1.31,10.38,2,15.57,1,8.39,2.08,16.78,3.15,25.16.72,5.67,1.53,11.33,2.23,17,.25,2,.88,3.94.39,6-.1.41.45,1,.5,1.51.31,3.57.57,7.15.83,10.73,0,.09-.12.2-.34.52a4.53,4.53,0,0,1-.66-1.38c-.19-2.34-1-4.63-.43-7-.88-1.42,0-3.27-.84-4.71a3,3,0,0,1-.22-1c-.51-3.86-1-7.73-1.51-11.6-.64-5.12-1.25-10.24-1.86-15.35l-.82-.32c0-.21-.09-.41,0-.46,1.07-1.14.44-2.51.3-3.75-.18-1.55-.58-3.07-.88-4.61,0-.14,0-.35-.07-.41-1.69-1.42-.37-3.11-.3-5.1l-1-.64c0-1.76.51-3.21-.38-4.5.49-1.6-.43-2.91-.66-4.36a44,44,0,0,1-.46-4.46,9.2,9.2,0,0,1,.43-2.11c-1.19-.52-1.51-1.44-1-2.79a2.35,2.35,0,0,0-.08-1.38,8.52,8.52,0,0,1-.26-5.68,2.82,2.82,0,0,0-.48-2.56,6.09,6.09,0,0,1-.91-3.55,23.11,23.11,0,0,0-.42-5.22c-.31-1.21-.34-2.83-1.76-3.49-.35-.17-.57-1.05-.64-1.64-.21-1.84-.21-3.73-.49-5.56-.42-2.75.11-5.59-.71-8.3a5.1,5.1,0,0,1,0-2.63,11.18,11.18,0,0,0,0-3.06c0-1.06-1-2.13,0-3.16-1.28-1-.44-2.6-.67-3.9a4.85,4.85,0,0,1,.15-1.24l1.26,1c.58-2.43-1.06-2.93-2.19-3.93-2.36,2.64-4.6,5.26-7,7.74-1.87,2-3.9,3.72-5.84,5.6-1.19,1.16-2.32,2.41-3.53,3.55a58.64,58.64,0,0,1-17.76,11.36,37.35,37.35,0,0,1-17.32,3,25,25,0,0,1-13.46-5.31,3.84,3.84,0,0,1-1.75-2.79c-.16-1.7.59-2.56,2-2.14a4.55,4.55,0,0,1,1.63.85c5.25,4.54,11.26,5.25,17.51,4.6A39.24,39.24,0,0,0,87.93,461a110.44,110.44,0,0,0,9.31-6.57c2.56-2,5-4.22,7.44-6.39.9-.8,1.95-1.48,2.28-2.9,0-.19.17-.51.26-.5,1.76,0,2.1-2.09,3.3-2.94a22.08,22.08,0,0,0,3-3.35c.6-.67,1.24-1.32,1.88-1.94a4.45,4.45,0,0,0,1.42-3.68,3,3,0,0,1,.54-2.29c.65-.83.29-2.16-.5-3.24a2.16,2.16,0,0,1-.4-1.12c0-1.6,0-3.2,0-5.07l1.56.85-.54-2.76-.67,1.73a8.78,8.78,0,0,1-.59-1.83c-.09-1.87.12-3.74-.1-5.63-.11-1-.17-2.2,1.4-2.25-.35-.55-.46-.89-.67-1a1.62,1.62,0,0,1-.7-1.58c0-2.95-.1-5.9,0-8.84,0-.93-.27-2,.92-2.71.43-.24.37-1.66.52-2.54s.29-1.6.38-2.4c0-.21-.18-.44-.46-1.07-.18,1.56-.31,2.69-.48,4.11-1-1.37-1-4.42-.47-13.38,1.2-.44,1.2-.44,1.46-1.86a6.29,6.29,0,0,1-1-.52c-.63-.45-.58-1-.06-1.52.83-.92.79-.92,0-2.07a2.09,2.09,0,0,1-.27-1.12c.09-2.23.23-4.45.36-6.72,1.1-.72,1.1-.72,1.34-3.06l1.22-.37c-.88-1.64.09-3.89-1.4-5.13a1.9,1.9,0,0,1-.68-1.74c0-.63,0-1.27.08-1.89s.16-1.24.39-1.33c1.12-.44,1-1.42,1-2.39a3.1,3.1,0,0,0-.66-2.44c-.83-.88-.17-2.6,1.1-3.38-1.14-1.81-1.13-3.21,0-4.38-.79-1.94-.38-3.9-.07-5.86a1.7,1.7,0,0,1,.33-.72c1-1.18,1-1.17.35-2.26a11.46,11.46,0,0,0,1.07-2.57c.26-1.72.3-3.48.42-5.23a1.34,1.34,0,0,0,0-.63c-1-2.18-.13-4.33.18-6.43.47-3.17,1.24-6.28,1.77-9.45.18-1.1,1.16-1.48,1.35-2.33s-.31-1.94-.11-2.79c.84-3.51,1.82-7,2.78-10.46a15.21,15.21,0,0,1,1.76-3.87c1-1.64,1.57-3.65,2.58-5.29,2.37-3.89,4.57-8,8.06-10.74,5.54-4.34,11.43-6.08,17.86-2.8a12.68,12.68,0,0,1,4,3.47,20.49,20.49,0,0,1,2.48,4.78,10.23,10.23,0,0,0,1.63,2.51,2.34,2.34,0,0,1,.51,2.12ZM120.71,468.54c-.49,1.16-.48,2.38,0,2.48l1-.79Zm-1-11.08c-.32.51-.52.69-.54.9a2.23,2.23,0,0,0,.19.76l.27-.05Z" transform="translate(-50.09 -266.23)"/><path class="cls-1" d="M461.45,383.45,459.87,385a22.77,22.77,0,0,1-2.25-3.2c-1.41-2.9-2.66-5.91-4-8.88-.08-.18,0-.49-.16-.59-1.81-1.72-1.93-4.42-2.86-6.63a38.36,38.36,0,0,1-2.25-7.68c-.56-2.92-1.2-5.81-1.76-8.73a11.52,11.52,0,0,1-.2-2.49c0-2.25.14-4.49.22-6.73a9.28,9.28,0,0,1,.59-3.67,3,3,0,0,0-.33-3.13c-1,0-2.19,0-3.34,0s-1.42.92-1.94,1.68c-1.27,1.88-2.5,3.8-3.84,5.61a19.81,19.81,0,0,1-2.35,2.32,3.65,3.65,0,0,1-4.88.56c-1.33-.78-1.63-.61-2.56.8-2.25,3.4-4.49,6.8-6.8,10.14A13.36,13.36,0,0,1,418.8,357c-2,1.72-4.43,1.16-6-1.3s-1.94-2.25-3.44.25c-1.65,2.76-3.55,5.31-5.31,8-.88,1.34-1.7,2.73-2.52,4.13-.37.63-.67,1.33-1,2a2.5,2.5,0,0,1-3.43,1.36,3.22,3.22,0,0,1-2.22-2.73c-.12-.87-.26-1.74-.45-2.94a9.11,9.11,0,0,0-.88,1.55c-1.11,3.61-2.94,6.76-4.58,10-.58,1.15-1.11,2.34-1.77,3.42a14.52,14.52,0,0,1-2,2.67c-2.13,2.17-5.46,1-6.2-2.15a6.11,6.11,0,0,1,.46-4.28q3.8-7.31,7.53-14.65a3.83,3.83,0,0,0,.51-1.11,2.68,2.68,0,0,1,2.38-2.45,3.36,3.36,0,0,0,2.14-1.45,27.64,27.64,0,0,1,1.91-2.25c2.07-2.17,4.66-1.68,6.11,1.13.21.4.46.78.78,1.31a5,5,0,0,0,1-.87c1.18-1.69,2.32-3.42,3.47-5.13.78-1.17,1.49-2.39,2.34-3.49,1.95-2.51,4.94-2.76,7-.16l.13.15c1.86,2.5,2.57,1.54,3.74-.09a81.35,81.35,0,0,0,5.27-7.76,49.78,49.78,0,0,0,3.17-7.77c.85-2.43,1.88-3.29,3.82-2.73,1.25.36,1.64,1.56,2,2.73a19.89,19.89,0,0,1,.53,2.57c.86.35,1.36-.15,1.81-.77,1.52-2.08,3-4.09,3.61-6.93.62-3.08,2.6-3.59,5-1.88a3.15,3.15,0,0,0,2.59.24,7.73,7.73,0,0,0,5.34-5.16c1.56-4.63,3.33-9.19,5.26-13.64q3.83-8.83,8-17.42c1.67-3.39,3.74-6.52,5.62-9.77.22-.4.33-.89.54-1.31a4.52,4.52,0,0,1,.76-1.35,21.56,21.56,0,0,0,3.89-5.26c.85-1.46,2.74-1.72,3.19-3.66,1.43-.59,2.83-1.27,4.28-1.74.88-.29,2.77,1.32,3,2.38a3,3,0,0,1-1.76,3.42c-2.73.83-4.75,2.88-6.46,5.21a33.81,33.81,0,0,1-2.86,3.27c-1.45,1.52-2.24,3.54-3.39,5.29-.29.44-.67.81-.94,1.26-.51.84-1,1.73-1.46,2.58a2.44,2.44,0,0,1-.56.67,2.2,2.2,0,0,0-1,2.44c.06.23,0,.69-.14.75-1,.46-.78,2.12-1.93,2.47-.24.07-.32.92-.43,1.42-.05.18.06.56,0,.57-1.33.41-.52,1.35-.28,2.17l-1.6,1v1.46l-1.4.85a6.24,6.24,0,0,1,.09,2,5.7,5.7,0,0,1-1.15,1.47c-.2.25-.61.6-.56.76.55,1.74-.81,2.64-1.22,3.92.11.88.22,1.75.32,2.57-1.21.55-.95-.64-1.35-1.19-.17.32-.5.65-.45.85a4.84,4.84,0,0,1-.57,3.63,2.14,2.14,0,0,0,1.95-.66q1.83-1.45,3.54-3.08a11.76,11.76,0,0,1,2.73-2c.94-.48,1.62-1.6,2.45-2.39.54-.51,1.16-.92,1.69-1.43a10.09,10.09,0,0,0,1.1-1.33c.93-1.24,1.69-2.74,3.36-2.81l.86-2.32,1.93.12c-.19-.67-.32-1.14-.49-1.78,1.68-.21,1.94-1.79,2.43-3.43l.92,1.21c.1,0,.23-.07.28-.16a17.5,17.5,0,0,0,1.94-4.61A7.19,7.19,0,0,1,484,289a8.5,8.5,0,0,1-.19,1.92,5.16,5.16,0,0,0-.42,3.4,1.16,1.16,0,0,1-.15.71c-.45.95-.9,1.91-1.41,2.82s-1.17,2-1.72,2.95l1.44.26c-.73,1.13-1.3,2.07-1.92,3-3.95,5.69-8.86,10.12-13.93,14.35-3.49,2.91-7,5.81-10.35,8.9a10.5,10.5,0,0,0-3.6,7.45c-.08,1.84-.7,3.65-.9,5.49a40.88,40.88,0,0,0,.4,9.63,79.44,79.44,0,0,0,2.89,12.8c.89,2.89,2.06,5.68,3.07,8.53C458.59,375.2,460,379.28,461.45,383.45Zm15.74-78.1c-.71-.13-.71-.13-1.35,1.06l1.35-1.07c.29-.56.58-1.12,1-1.95A1.52,1.52,0,0,0,477.19,305.35Zm-3,2.86.27.28.61-.77-.18-.22Z" transform="translate(-50.09 -266.23)"/><path class="cls-1" d="M197.93,473.51c.47-2.52.9-5.05,1.43-7.56a13.6,13.6,0,0,1,1-3.33c1.16-2.28,3.64-2.2,4.81.12a6.84,6.84,0,0,1,.59,2.17c.52,4.09,1,8.19,1.48,12.29.05.39.15.78.31,1.6.48-.58.89-.88,1-1.3a66.53,66.53,0,0,0,3-10.79c.54-3,1.08-6,1.68-9,.36-1.83,1.44-2.68,3.07-2.6a3.25,3.25,0,0,1,2.57,2.8c.2,2.51.18,5,.34,7.56.21,3.21.44,6.43.8,9.62a8.48,8.48,0,0,0,1.28,4c1,0,1.16-.83,1.31-1.57.35-1.78.67-3.56.94-5.35.55-3.74.12-7.51,0-11.25-.07-3.2-.81-6.38-1.13-9.58s-.53-6.23-.68-9.36c-.1-2.15,0-4.32,0-6.48,0-2.62,1-3.46,3.22-3a7,7,0,0,1,4.52,3.61c1.16,1.89,2.19,3.88,3.29,5.82,2.31,4.12,4.54,8.31,7,12.33a51.54,51.54,0,0,0,10.65,12.32c2.62,2.25,5.43,4.19,8.14,6.32.74.58,1.4,1.31,2.19,2.06l-.46,1.76c-.58.48-1.32-.41-1.73.54-.06.15-.58.16-.84.06a36.24,36.24,0,0,1-12.16-8c-1.38-1.37-2.86-2.61-4.19-4A71.61,71.61,0,0,1,232.19,452c-1.51-2.63-2.93-5.34-4.41-8-.38-.69-.7-1.56-1.72-1.21a3.24,3.24,0,0,0-.35.9c-.21,1.94-.42,3.88-.53,5.83-.09,1.54.06,3.09-.07,4.62a8.05,8.05,0,0,1-.93,2.13c.88,1.54.76,3.54.57,5.55,0,.2-.16.46-.09.6.92,2,.25,4.16.57,6.21.13.85-.27,1.88.6,2.49,0,0,.11.13.1.16-.77,2.09.56,4.09.1,6.27a48.7,48.7,0,0,1-1.42,6.27c-.74,2.12-3.31,2.65-5.13,1.06a5.2,5.2,0,0,1-1.43-1.88c-.83-2.17-1.53-4.41-2.28-6.62-.12-.37-.22-.75-.35-1.16-1,.18-1,1.06-1.22,1.73-.86,2.86-1.67,5.73-2.51,8.59-.29,1-.63,2-.92,3-.61,2.12-1.74,2.28-3.13,1.94a3.13,3.13,0,0,1-2.56-2.64c-.44-2.47-1-4.93-1.43-7.39-.18-.94-.37-1.87-.56-2.81h-.42c-.15.66-.34,1.31-.45,2-.6,3.65-1.18,7.3-1.79,10.95a5.6,5.6,0,0,1-.45,1.59c-.44.87-.7,2.11-1.84,2.05a3.29,3.29,0,0,1-3.12-1.77,6.3,6.3,0,0,1-.59-1.76c-.45-2.82-1-5.64-1.25-8.49-.44-4.24-.76-8.5-1.08-12.76s-.64-8.8-.89-13.2c-.1-1.64.49-2.14,1.85-1.75a4.14,4.14,0,0,1,2.95,3.33,44.38,44.38,0,0,1,.72,8.77c.07,2.1.29,4.19.47,6.28a2.81,2.81,0,0,0,.32.74Z" transform="translate(-50.09 -266.23)"/><path class="cls-1" d="M159,520.47c-1,1.78-1.15,3.48-1.65,5-.79,2.49-1.55,5-2.55,7.39a2.79,2.79,0,0,1-4.09,1.17,4,4,0,0,1-1-4.68c2.84-5.81,4.08-12.29,5.77-18.58a8.39,8.39,0,0,0-.09-3.52c-.89-4.65-1.88-9.29-2.84-13.92-.28-1.37-.75-2.7-.89-4.08-.37-3.47-.71-7-.85-10.45-.2-4.88-.16-9.78-.29-14.67a71.82,71.82,0,0,1,1.26-13.36,32,32,0,0,1,2.25-6.86c.89-2.21,4.62-2.81,6.45-1.13a9.13,9.13,0,0,1,2.8,4.53,49.91,49.91,0,0,1,1.46,6.89c.21,1.84.65,3.64,1,5.46a16.06,16.06,0,0,1,.15,2.09c0,.34-.12.71-.08,1a94.73,94.73,0,0,1,.33,10.52c.06,2.86-.14,5.74-.36,8.59s-.5,5.43-.94,8.1c-.72,4.33-1.58,8.64-2.4,13-.24,1.3-.52,2.59-.86,3.87a14.36,14.36,0,0,0,.69,8.6,111,111,0,0,0,6.47,14.83c.46.9,1.14,1.65,1.66,2.51s1.41,1.55,1.08,3.09c-.15.71.84,1.75,1.35,2.62a14.6,14.6,0,0,0,.94,1.29c-1,.65-1.58.36-2-.4a2,2,0,0,0-1.51-1.11c-1-.19-1.76-1.42-2.09-2.59a1.62,1.62,0,0,0-.83-1.07,6.39,6.39,0,0,1-1.71-2.08,77.24,77.24,0,0,1-4.48-8.45A32.64,32.64,0,0,0,159,520.47ZM163.57,469a9.19,9.19,0,0,1-.79-1.9,32.6,32.6,0,0,1-.38-3.95A57.55,57.55,0,0,0,161,452.8a23.76,23.76,0,0,0-1.4-4.09,2.33,2.33,0,0,0-1.34-1.21c-.81-.22-1.11.71-1.35,1.41a20.42,20.42,0,0,0-.85,3,108.19,108.19,0,0,0-1.58,16.48,132.49,132.49,0,0,0,2.87,29.39,11.19,11.19,0,0,0,.69,1.65,5.16,5.16,0,0,0,.69-1.2c.75-3.61,1.43-7.23,2.19-10.84a31.4,31.4,0,0,1,1.31-5c.27-.71.82-1.47.43-2.06-.64-1,.62-1.37.28-2.27-.83-2.2-.44-4.57-.48-6.87C162.46,470.14,162.61,469.28,163.57,469Z" transform="translate(-50.09 -266.23)"/><path class="cls-1" d="M182.44,453.72c0,2.23,0,4.46,0,6.69-.08,3.64-.3,7.28-.32,10.93a165.49,165.49,0,0,0,1.74,23.23c.57,4.22,1,8.47,1.65,12.68a63.28,63.28,0,0,0,1.56,6.67,3.68,3.68,0,0,1-.18,3.2c-1,1.47-2.23,1.57-3.46.35a6.24,6.24,0,0,1-1.59-3.24c-.78-3.68-1.44-7.4-2.35-11-1.21-4.85-2.63-9.62-3.92-14.44-1.24-4.61-2.43-9.24-3.62-13.86-.79-3.09-1.59-6.19-2.31-9.3a21.55,21.55,0,0,1-.31-3.13,3.51,3.51,0,0,1,3.34-4.05c.91-.05,1.83,0,2.74,0s1.32-.53,1.33-1.54c0-1.2,0-2.4,0-3.59a4.4,4.4,0,0,1,1.86-3.62c1.35-1,3.55-.59,3.86,2a18.19,18.19,0,0,1,0,2.09Zm-4.73,29.11c0-1.38,0-2.25,0-3.13-.19-3.63-.41-7.26-.6-10.89-.08-1.4-.06-2.81-.13-4.21s-.44-1.65-1.45-1.68c-1.2,0-1.78.45-1.79,1.76a18,18,0,0,0,.3,3.11c.34,2,.93,3.95,1.08,5.95a42,42,0,0,0,1.9,8.09A5.78,5.78,0,0,0,177.71,482.83Z" transform="translate(-50.09 -266.23)"/><path class="cls-1" d="M272.22,497.93c-1-.19-1-.86-1.07-1.46a7.85,7.85,0,0,0-1.11-4.23,12.61,12.61,0,0,1-1.43-4.71c-.33-1.9-1.28-3.61-1.13-5.69a2.11,2.11,0,0,0-1.24-2.07.87.87,0,0,1-.47-1.32c1.11-1.26.21-2.56.18-3.81a29.42,29.42,0,0,0-.54-3.47c0-.21,0-.48-.07-.62-1.13-1.86-1-4.12-1.49-6.19-.68-3-1.17-6.12-1.71-9.19-.12-.68-.06-1.4-.15-2.1a29.3,29.3,0,0,0-.66-4.21c-.19-.68-.92-1.15-1.5-1.84l1-.82c-.18-1.1-.35-2.19-.55-3.28-.12-.65-.06-1.35-.76-1.78-.29-.19-.35-1-.42-1.52-.09-.68-.1-1.37-.15-2.16l.84-.17c-.18-2-.37-4.06-.55-6.09-.22-.05-.3-.09-.32-.06-.49.56-.89.72-1.09-.27,1.46-1.38,1.64-2.11,1.1-4.28a7.53,7.53,0,0,1-.13-1.43c0-.42.11-.92,0-1.25-1.18-2.52-.39-5.33-.9-7.94a5.21,5.21,0,0,1,.29-1.54c.07-.43.09-.88.13-1.37-1-.09-1.33.46-1.27,1.36.08,1.11.19,2.21.26,3.32,0,.7.05,1.4.06,2.1,0,1,0,2,0,3.24-.26.29-.59.1-.73-.5a12.37,12.37,0,0,1-.36-2.26c-.16-3.57-.3-7.14-.4-10.71s-.11-7.22-.23-10.82c-.08-2.5-.3-5-.4-7.48-.05-1.18,0-2.36.06-3.54.09-3.79.09-7.59.3-11.37.32-5.74.62-11.5,2.42-17a27.33,27.33,0,0,1,1.2-2.61,3.57,3.57,0,0,1,1.95,2.23c1.85,5.4,1.79,5.37,1.1,11a144,144,0,0,0-1.37,18.23c0,5.2-.29,10.39-.32,15.59a146.27,146.27,0,0,0,.68,16.61,38.37,38.37,0,0,1,.12,5.47c0,.92-.65,1.83-.61,2.72s.76,1.54.89,2.37A21.38,21.38,0,0,1,262,436c-.22,3,.68,5.81,1,8.72.12,1.22,0,2.47,0,3.72a4.7,4.7,0,0,0,.19.95,5,5,0,0,1,.31,1.55,5,5,0,0,0,.35,1.95c.38,1.53.37,3.18.74,4.72.5,2.14.07,4.5,1.16,6.49a2.29,2.29,0,0,1,.18.81,61.64,61.64,0,0,0,.9,6.28c.51,2.12,1.15,4.2,1.56,6.35a20.09,20.09,0,0,0,.88,4.35,14.18,14.18,0,0,1,1,4.14,72.15,72.15,0,0,0,1.94,8.65A15.42,15.42,0,0,1,272.22,497.93Z" transform="translate(-50.09 -266.23)"/><path class="cls-1" d="M368,395c-1.18,2.4-2.13,4.71-4.1,6.23a2.86,2.86,0,0,1-3.23.51,5.73,5.73,0,0,1-3.12-2.73c-.5-1.06-1.08-1-1.58,0-1.26,2.64-2.39,5.35-3.65,8q-1.49,3.12-3.15,6.11a25.25,25.25,0,0,1-2.68,4.2c-2.46,2.86-3.81,2.31-5.85.53-1.27-1.1-1.28-2.66-1-4.18a20.65,20.65,0,0,1,1.07-4.23,163,163,0,0,1,6.76-14.9c1.13-2.24,2.18-4.53,3.32-6.77,1.55-3.07,3.33-5.87,6.53-6.86.92-.28,1.31-1.11,1.56-2.14a3.74,3.74,0,0,1,2.74-3c.17,0,.41-.19.51-.11a11.26,11.26,0,0,1,2.52,2.29,3.84,3.84,0,0,1,.11,2.57c-.56,2.21-1.32,4.35-1.94,6.54a21.94,21.94,0,0,0-.41,2.47c-.13.89-.25,1.78-.38,2.68a13.9,13.9,0,0,0-.22,1.44c-.06,2,.64,2.56,2.23,1.72.66-.35,1.26-1,1.92-1.11S367.18,394.72,368,395Z" transform="translate(-50.09 -266.23)"/><path class="cls-1" d="M331,399.27c-.55-.36-.33-1.51-1.24-1.37-.13,0-.43-.64-.48-1-.21-1.59-.36-3.18-.52-4.78-.09-1-.14-1.94-.21-2.91a16.83,16.83,0,0,1,.57-5.79c.31-1.17.86-2,1.94-2.23.81-.15,2.44,1,2.86,1.91a5.83,5.83,0,0,1,.3,3.48A101.11,101.11,0,0,1,332.32,397C332.07,397.84,332,398.81,331,399.27Z" transform="translate(-50.09 -266.23)"/><path class="cls-1" d="M507.8,380.76c0,2.41-1.13,3.46-3.07,2.22a42.45,42.45,0,0,1-4.65-3.56,4.34,4.34,0,0,1-1.22-3.54c.07-2.06,1.7-3.34,3.44-2.77a7.69,7.69,0,0,1,4.28,4.25A9.12,9.12,0,0,1,507.8,380.76Z" transform="translate(-50.09 -266.23)"/><path class="cls-1" d="M171,304.63a12.68,12.68,0,0,1-.53-4.08,6.32,6.32,0,0,1,.57-1.9c.36.27.59.34.63.49a3.27,3.27,0,0,1,.11,1c-.07,1.5-.16,3-.25,4.5Z" transform="translate(-50.09 -266.23)"/><path class="cls-1" d="M135.13,578.89c-1-1.66-.6-3-.42-4.53.32.27.63.41.64.57A7.28,7.28,0,0,1,135.13,578.89Z" transform="translate(-50.09 -266.23)"/><path class="cls-1" d="M124.48,506.19c.36,1.29.64,2.32-.19,3.35C123.38,508,123.41,507.14,124.48,506.19Z" transform="translate(-50.09 -266.23)"/><path class="cls-1" d="M124.91,513.85a4.68,4.68,0,0,1-.5-3.5C124.89,511.45,125.55,512.5,124.91,513.85Z" transform="translate(-50.09 -266.23)"/><path class="cls-1" d="M167.75,286.11c1.29,1.21,1.29,1.21.68,3.24l-1.06-3Z" transform="translate(-50.09 -266.23)"/><path class="cls-1" d="M257.11,427.12c-.73-1.25-.25-1.74.56-2.26C258.12,425.85,257.75,426.39,257.11,427.12Z" transform="translate(-50.09 -266.23)"/><path class="cls-1" d="M169.68,293.62l1.59,1.32C169.76,295.44,169.57,295.29,169.68,293.62Z" transform="translate(-50.09 -266.23)"/><path class="cls-1" d="M484.3,289.22c-.71-1.41-.58-1.86.6-2.49C484.7,287.53,484.54,288.19,484.3,289.22Z" transform="translate(-50.09 -266.23)"/><path class="cls-1" d="M167.28,283.24a1.73,1.73,0,0,1,.28,2.5C166.4,285,167.13,284.25,167.28,283.24Z" transform="translate(-50.09 -266.23)"/><path class="cls-1" d="M135.53,581.84c-.75-1.06-.75-1.06-.3-2.28C136,580.13,136,580.81,135.53,581.84Z" transform="translate(-50.09 -266.23)"/><path class="cls-1" d="M289.63,458.1c1.07.21,1.39.61,1.21,1.35,0,.18-.33.28-.5.41Z" transform="translate(-50.09 -266.23)"/><path class="cls-1" d="M288,404.19a4.54,4.54,0,0,1,0,1.23c-.08.23-.44.34-.67.51-.07-.31-.29-.75-.2-.88a4.36,4.36,0,0,1,1-.79Z" transform="translate(-50.09 -266.23)"/><path class="cls-1" d="M341.74,326.12l-1.2,1.88C340.15,326.81,340.46,326.26,341.74,326.12Z" transform="translate(-50.09 -266.23)"/><path class="cls-1" d="M122.13,491.27c-.77-.64-.65-1.26-.38-2.09C122.52,489.82,122.41,490.44,122.13,491.27Z" transform="translate(-50.09 -266.23)"/><path class="cls-1" d="M290.42,512.57c.05.44.1.87.12,1.31,0,0-.42.16-.42.14-.14-.42-.26-.86-.37-1.29Z" transform="translate(-50.09 -266.23)"/><path class="cls-1" d="M296.83,471.9a10,10,0,0,1-.23-1.09,1.23,1.23,0,0,1,.43-.18c.16.34.28.71.41,1.07Z" transform="translate(-50.09 -266.23)"/><path class="cls-1" d="M290.79,466.32l-.94-1.08c.91-.3,1.12.14,1.24.7Z" transform="translate(-50.09 -266.23)"/><path class="cls-1" d="M291.08,461.74c-.34.25-.54.49-.77.54s-.41-.43-.37-.5a1.34,1.34,0,0,1,.55-.6C290.58,461.14,290.8,461.46,291.08,461.74Z" transform="translate(-50.09 -266.23)"/><path class="cls-1" d="M258.29,428.67a3.8,3.8,0,0,1-.54-.95c0-.12.28-.32.43-.48.15.2.37.37.43.6S258.47,428.23,258.29,428.67Z" transform="translate(-50.09 -266.23)"/><path class="cls-1" d="M134.61,569.79a10.32,10.32,0,0,1,.26,1.13,1.29,1.29,0,0,1-.44.16c-.16-.35-.28-.72-.41-1.08Z" transform="translate(-50.09 -266.23)"/><path class="cls-1" d="M122.49,488.37c-.32.15-.58.37-.66.3a.91.91,0,0,1-.24-.65c0-.18.25-.32.4-.48Z" transform="translate(-50.09 -266.23)"/><path class="cls-1" d="M261.59,451.9c-.27.18-.46.39-.55.34a1.08,1.08,0,0,1-.42-.51c0-.06.23-.4.28-.38A4.24,4.24,0,0,1,261.59,451.9Z" transform="translate(-50.09 -266.23)"/><path class="cls-1" d="M289,444.58c-.15-.4-1-.46-.41-1.25.75.16.37.82.39,1.29Z" transform="translate(-50.09 -266.23)"/><path class="cls-1" d="M258,432.88c.22.39.41.62.38.69a2.18,2.18,0,0,1-.45.46,1.38,1.38,0,0,1-.21-.51A2.42,2.42,0,0,1,258,432.88Z" transform="translate(-50.09 -266.23)"/></svg>